STARTFONT 2.1
FONT -FontForge-Go Mono-Demi-R-Normal--12-120-75-75-P-69-ISO10646-1
SIZE 12 75 75
FONTBOUNDINGBOX 7 17 0 -3
COMMENT "Generated by fontforge, http://fontforge.sourceforge.net"
COMMENT "Copyright (c) 2016 by Bigelow & Holmes Inc.. All rights reserved."
STARTPROPERTIES 41
FOUNDRY "FontForge"
FAMILY_NAME "Go Mono"
WEIGHT_NAME "Demi"
SLANT "R"
SETWIDTH_NAME "Normal"
ADD_STYLE_NAME ""
PIXEL_SIZE 12
POINT_SIZE 120
RESOLUTION_X 75
RESOLUTION_Y 75
SPACING "P"
AVERAGE_WIDTH 69
CHARSET_REGISTRY "ISO10646"
CHARSET_ENCODING "1"
FONTNAME_REGISTRY ""
CHARSET_COLLECTIONS "ASCII ISOLatin1Encoding ISO8859-2 ISO8859-5 ISO8859-7 ISO8859-9 ISO8859-4 ISO10646-1"
FONT_NAME "GoMono-Bold"
FACE_NAME "Go Mono Bold"
COPYRIGHT "Copyright (c) 2016 by Bigelow & Holmes Inc.. All rights reserved."
FONT_VERSION "2.004; ttfautohint (v1.5)"
FONT_ASCENT 10
FONT_DESCENT 2
UNDERLINE_POSITION 1
UNDERLINE_THICKNESS 1
X_HEIGHT 6
CAP_HEIGHT 8
DEFAULT_CHAR 1
RAW_ASCENT 799
RAW_DESCENT 200
NORM_SPACE 7
RELATIVE_WEIGHT 60
RELATIVE_SETWIDTH 50
SUPERSCRIPT_X 0
SUPERSCRIPT_Y 5
SUPERSCRIPT_SIZE 7
SUBSCRIPT_X 0
SUBSCRIPT_Y 1
SUBSCRIPT_SIZE 7
FIGURE_WIDTH 7
AVG_LOWERCASE_WIDTH 70
AVG_UPPERCASE_WIDTH 70
ENDPROPERTIES
CHARS 666
STARTCHAR NULL
ENCODING 0
SWIDTH 0 0
DWIDTH 0 0
BBX 1 1 0 0
BITMAP
00
ENDCHAR
STARTCHAR uni0005
ENCODING 5
SWIDTH 0 0
DWIDTH 0 0
BBX 1 1 0 0
BITMAP
00
ENDCHAR
STARTCHAR nonmarkingreturn
ENCODING 13
SWIDTH 600 0
DWIDTH 7 0
BBX 1 1 0 0
BITMAP
00
ENDCHAR
STARTCHAR space
ENCODING 32
SWIDTH 600 0
DWIDTH 7 0
BBX 1 1 0 0
BITMAP
00
ENDCHAR
STARTCHAR exclam
ENCODING 33
SWIDTH 600 0
DWIDTH 7 0
BBX 2 9 3 0
BITMAP
C0
C0
80
80
80
80
00
00
80
ENDCHAR
STARTCHAR quotedbl
ENCODING 34
SWIDTH 600 0
DWIDTH 7 0
BBX 5 4 1 6
BITMAP
D8
D8
C8
C8
ENDCHAR
STARTCHAR numbersign
ENCODING 35
SWIDTH 600 0
DWIDTH 7 0
BBX 7 9 0 0
BITMAP
14
14
7E
28
28
FC
48
50
50
ENDCHAR
STARTCHAR dollar
ENCODING 36
SWIDTH 600 0
DWIDTH 7 0
BBX 5 12 1 -1
BITMAP
20
78
E8
A0
E0
60
38
38
A8
B8
F0
20
ENDCHAR
STARTCHAR percent
ENCODING 37
SWIDTH 600 0
DWIDTH 7 0
BBX 7 9 0 0
BITMAP
62
B4
B8
68
1C
2A
3A
4A
CE
ENDCHAR
STARTCHAR ampersand
ENCODING 38
SWIDTH 600 0
DWIDTH 7 0
BBX 7 9 0 0
BITMAP
38
28
28
30
56
DC
CC
CC
7E
ENDCHAR
STARTCHAR quotesingle
ENCODING 39
SWIDTH 600 0
DWIDTH 7 0
BBX 2 4 3 6
BITMAP
C0
80
80
80
ENDCHAR
STARTCHAR parenleft
ENCODING 40
SWIDTH 600 0
DWIDTH 7 0
BBX 5 12 1 -2
BITMAP
18
30
60
40
C0
C0
C0
C0
40
60
30
18
ENDCHAR
STARTCHAR parenright
ENCODING 41
SWIDTH 600 0
DWIDTH 7 0
BBX 5 12 1 -2
BITMAP
C0
60
30
18
18
18
18
18
18
30
60
C0
ENDCHAR
STARTCHAR asterisk
ENCODING 42
SWIDTH 600 0
DWIDTH 7 0
BBX 6 6 1 2
BITMAP
30
A8
DC
50
D8
50
ENDCHAR
STARTCHAR plus
ENCODING 43
SWIDTH 600 0
DWIDTH 7 0
BBX 6 7 1 1
BITMAP
20
20
20
FC
20
20
20
ENDCHAR
STARTCHAR comma
ENCODING 44
SWIDTH 600 0
DWIDTH 7 0
BBX 2 4 3 -2
BITMAP
C0
C0
C0
80
ENDCHAR
STARTCHAR hyphen
ENCODING 45
SWIDTH 600 0
DWIDTH 7 0
BBX 6 1 1 4
BITMAP
FC
ENDCHAR
STARTCHAR period
ENCODING 46
SWIDTH 600 0
DWIDTH 7 0
BBX 2 2 3 0
BITMAP
C0
C0
ENDCHAR
STARTCHAR slash
ENCODING 47
SWIDTH 600 0
DWIDTH 7 0
BBX 7 12 0 -2
BITMAP
02
04
04
08
08
18
10
30
20
60
40
C0
ENDCHAR
STARTCHAR zero
ENCODING 48
SWIDTH 600 0
DWIDTH 7 0
BBX 7 9 0 0
BITMAP
38
6C
44
4E
D6
66
44
6C
38
ENDCHAR
STARTCHAR one
ENCODING 49
SWIDTH 600 0
DWIDTH 7 0
BBX 6 10 1 0
BITMAP
10
70
F0
30
30
30
30
30
30
FC
ENDCHAR
STARTCHAR two
ENCODING 50
SWIDTH 600 0
DWIDTH 7 0
BBX 5 9 1 0
BITMAP
F0
98
88
18
10
20
40
C0
F8
ENDCHAR
STARTCHAR three
ENCODING 51
SWIDTH 600 0
DWIDTH 7 0
BBX 5 9 1 0
BITMAP
F0
98
18
60
18
08
08
98
F0
ENDCHAR
STARTCHAR four
ENCODING 52
SWIDTH 600 0
DWIDTH 7 0
BBX 7 9 0 0
BITMAP
0C
1C
3C
2C
4C
FE
0C
0C
1E
ENDCHAR
STARTCHAR five
ENCODING 53
SWIDTH 600 0
DWIDTH 7 0
BBX 5 9 1 0
BITMAP
F8
80
80
F0
18
08
08
98
F0
ENDCHAR
STARTCHAR six
ENCODING 54
SWIDTH 600 0
DWIDTH 7 0
BBX 6 9 1 0
BITMAP
38
48
C0
B8
C8
CC
CC
C8
78
ENDCHAR
STARTCHAR seven
ENCODING 55
SWIDTH 600 0
DWIDTH 7 0
BBX 5 9 1 0
BITMAP
F8
08
10
30
20
60
40
C0
C0
ENDCHAR
STARTCHAR eight
ENCODING 56
SWIDTH 600 0
DWIDTH 7 0
BBX 6 9 1 0
BITMAP
70
D8
C8
F0
78
98
8C
C8
70
ENDCHAR
STARTCHAR nine
ENCODING 57
SWIDTH 600 0
DWIDTH 7 0
BBX 7 9 0 0
BITMAP
38
4C
C4
4E
76
04
0C
4C
78
ENDCHAR
STARTCHAR colon
ENCODING 58
SWIDTH 600 0
DWIDTH 7 0
BBX 2 7 3 0
BITMAP
C0
C0
00
00
00
C0
C0
ENDCHAR
STARTCHAR semicolon
ENCODING 59
SWIDTH 600 0
DWIDTH 7 0
BBX 2 9 3 -2
BITMAP
C0
C0
00
00
00
C0
C0
C0
80
ENDCHAR
STARTCHAR less
ENCODING 60
SWIDTH 600 0
DWIDTH 7 0
BBX 6 8 1 0
BITMAP
04
1C
30
C0
60
30
0C
04
ENDCHAR
STARTCHAR equal
ENCODING 61
SWIDTH 600 0
DWIDTH 7 0
BBX 6 4 1 2
BITMAP
FC
00
00
FC
ENDCHAR
STARTCHAR greater
ENCODING 62
SWIDTH 600 0
DWIDTH 7 0
BBX 6 8 1 0
BITMAP
80
C0
70
1C
38
60
C0
80
ENDCHAR
STARTCHAR question
ENCODING 63
SWIDTH 600 0
DWIDTH 7 0
BBX 6 9 1 0
BITMAP
F8
98
0C
18
30
60
60
00
60
ENDCHAR
STARTCHAR at
ENCODING 64
SWIDTH 600 0
DWIDTH 7 0
BBX 7 9 0 0
BITMAP
3C
7E
52
B6
A6
B6
5A
60
3C
ENDCHAR
STARTCHAR A
ENCODING 65
SWIDTH 600 0
DWIDTH 7 0
BBX 7 9 0 0
BITMAP
18
38
28
28
4C
7C
44
46
CE
ENDCHAR
STARTCHAR B
ENCODING 66
SWIDTH 600 0
DWIDTH 7 0
BBX 7 9 0 0
BITMAP
FC
4C
44
4C
78
4C
46
46
FC
ENDCHAR
STARTCHAR C
ENCODING 67
SWIDTH 600 0
DWIDTH 7 0
BBX 7 9 0 0
BITMAP
3E
62
62
C0
C0
C0
60
62
3E
ENDCHAR
STARTCHAR D
ENCODING 68
SWIDTH 600 0
DWIDTH 7 0
BBX 7 9 0 0
BITMAP
F8
6C
66
66
66
66
66
6C
F8
ENDCHAR
STARTCHAR E
ENCODING 69
SWIDTH 600 0
DWIDTH 7 0
BBX 7 9 0 0
BITMAP
FE
66
60
68
78
68
60
62
FE
ENDCHAR
STARTCHAR F
ENCODING 70
SWIDTH 600 0
DWIDTH 7 0
BBX 7 9 0 0
BITMAP
FE
62
60
6C
7C
6C
60
60
F0
ENDCHAR
STARTCHAR G
ENCODING 71
SWIDTH 600 0
DWIDTH 7 0
BBX 7 9 0 0
BITMAP
3E
62
62
C0
CE
C6
66
66
3E
ENDCHAR
STARTCHAR H
ENCODING 72
SWIDTH 600 0
DWIDTH 7 0
BBX 7 9 0 0
BITMAP
EE
44
44
44
7C
44
44
44
EE
ENDCHAR
STARTCHAR I
ENCODING 73
SWIDTH 600 0
DWIDTH 7 0
BBX 5 9 1 0
BITMAP
F8
20
20
20
20
20
20
20
F8
ENDCHAR
STARTCHAR J
ENCODING 74
SWIDTH 600 0
DWIDTH 7 0
BBX 6 9 1 0
BITMAP
7C
10
10
10
10
10
90
90
F0
ENDCHAR
STARTCHAR K
ENCODING 75
SWIDTH 600 0
DWIDTH 7 0
BBX 7 9 0 0
BITMAP
E6
44
48
50
78
58
4C
46
EE
ENDCHAR
STARTCHAR L
ENCODING 76
SWIDTH 600 0
DWIDTH 7 0
BBX 7 9 0 0
BITMAP
F0
60
60
60
60
60
62
62
FE
ENDCHAR
STARTCHAR M
ENCODING 77
SWIDTH 600 0
DWIDTH 7 0
BBX 7 9 0 0
BITMAP
C6
E6
EE
EE
EE
EE
D6
D6
C6
ENDCHAR
STARTCHAR N
ENCODING 78
SWIDTH 600 0
DWIDTH 7 0
BBX 7 9 0 0
BITMAP
C6
66
66
76
56
5E
4E
46
E6
ENDCHAR
STARTCHAR O
ENCODING 79
SWIDTH 600 0
DWIDTH 7 0
BBX 7 9 0 0
BITMAP
38
6C
46
C6
C6
C6
46
6C
38
ENDCHAR
STARTCHAR P
ENCODING 80
SWIDTH 600 0
DWIDTH 7 0
BBX 7 9 0 0
BITMAP
FC
66
66
66
7C
60
60
60
F8
ENDCHAR
STARTCHAR Q
ENCODING 81
SWIDTH 600 0
DWIDTH 7 0
BBX 7 11 0 -2
BITMAP
38
6C
46
C6
C6
C6
46
6C
38
0E
04
ENDCHAR
STARTCHAR R
ENCODING 82
SWIDTH 600 0
DWIDTH 7 0
BBX 7 9 0 0
BITMAP
FC
6C
6C
6C
78
78
6C
6C
F6
ENDCHAR
STARTCHAR S
ENCODING 83
SWIDTH 600 0
DWIDTH 7 0
BBX 6 9 1 0
BITMAP
78
C8
C8
E0
70
18
8C
88
F0
ENDCHAR
STARTCHAR T
ENCODING 84
SWIDTH 600 0
DWIDTH 7 0
BBX 7 9 0 0
BITMAP
FE
92
10
10
10
10
10
10
7C
ENDCHAR
STARTCHAR U
ENCODING 85
SWIDTH 600 0
DWIDTH 7 0
BBX 7 9 0 0
BITMAP
E6
46
46
46
46
46
64
64
3C
ENDCHAR
STARTCHAR V
ENCODING 86
SWIDTH 600 0
DWIDTH 7 0
BBX 7 9 0 0
BITMAP
E6
42
64
64
64
28
38
38
30
ENDCHAR
STARTCHAR W
ENCODING 87
SWIDTH 600 0
DWIDTH 7 0
BBX 7 9 0 0
BITMAP
C6
D2
5A
5C
5C
6C
6C
6C
6C
ENDCHAR
STARTCHAR X
ENCODING 88
SWIDTH 600 0
DWIDTH 7 0
BBX 7 9 0 0
BITMAP
EE
64
38
38
18
38
6C
4C
CE
ENDCHAR
STARTCHAR Y
ENCODING 89
SWIDTH 600 0
DWIDTH 7 0
BBX 7 9 0 0
BITMAP
E6
64
64
38
18
18
18
18
7C
ENDCHAR
STARTCHAR Z
ENCODING 90
SWIDTH 600 0
DWIDTH 7 0
BBX 6 9 1 0
BITMAP
F8
98
18
30
30
60
CC
CC
FC
ENDCHAR
STARTCHAR bracketleft
ENCODING 91
SWIDTH 600 0
DWIDTH 7 0
BBX 4 12 2 -2
BITMAP
F0
C0
C0
C0
C0
C0
C0
C0
C0
C0
C0
F0
ENDCHAR
STARTCHAR backslash
ENCODING 92
SWIDTH 600 0
DWIDTH 7 0
BBX 7 12 0 -2
BITMAP
C0
40
60
20
30
10
18
08
08
04
04
02
ENDCHAR
STARTCHAR bracketright
ENCODING 93
SWIDTH 600 0
DWIDTH 7 0
BBX 4 12 1 -2
BITMAP
F0
10
10
10
10
10
10
10
10
10
10
F0
ENDCHAR
STARTCHAR asciicircum
ENCODING 94
SWIDTH 600 0
DWIDTH 7 0
BBX 5 6 1 3
BITMAP
20
20
70
50
58
88
ENDCHAR
STARTCHAR underscore
ENCODING 95
SWIDTH 600 0
DWIDTH 7 0
BBX 7 1 0 -1
BITMAP
FE
ENDCHAR
STARTCHAR grave
ENCODING 96
SWIDTH 600 0
DWIDTH 7 0
BBX 3 2 2 8
BITMAP
C0
60
ENDCHAR
STARTCHAR a
ENCODING 97
SWIDTH 600 0
DWIDTH 7 0
BBX 7 7 0 0
BITMAP
7C
4C
04
3C
64
CC
76
ENDCHAR
STARTCHAR b
ENCODING 98
SWIDTH 600 0
DWIDTH 7 0
BBX 7 10 0 0
BITMAP
C0
40
40
5C
66
46
46
46
44
7C
ENDCHAR
STARTCHAR c
ENCODING 99
SWIDTH 600 0
DWIDTH 7 0
BBX 7 7 0 0
BITMAP
3E
62
C2
C0
C0
62
3E
ENDCHAR
STARTCHAR d
ENCODING 100
SWIDTH 600 0
DWIDTH 7 0
BBX 7 10 0 0
BITMAP
0C
04
04
3C
64
C4
C4
C4
4C
76
ENDCHAR
STARTCHAR e
ENCODING 101
SWIDTH 600 0
DWIDTH 7 0
BBX 7 7 0 0
BITMAP
38
64
C6
FE
C0
62
3E
ENDCHAR
STARTCHAR f
ENCODING 102
SWIDTH 600 0
DWIDTH 7 0
BBX 6 10 1 0
BITMAP
3C
64
60
F8
60
60
60
60
60
F8
ENDCHAR
STARTCHAR g
ENCODING 103
SWIDTH 600 0
DWIDTH 7 0
BBX 7 9 0 -2
BITMAP
3E
64
C4
C4
4C
74
04
4C
78
ENDCHAR
STARTCHAR h
ENCODING 104
SWIDTH 600 0
DWIDTH 7 0
BBX 7 10 0 0
BITMAP
E0
60
60
7C
64
64
64
64
64
EE
ENDCHAR
STARTCHAR i
ENCODING 105
SWIDTH 600 0
DWIDTH 7 0
BBX 6 10 1 0
BITMAP
30
30
00
F0
30
30
30
30
30
FC
ENDCHAR
STARTCHAR j
ENCODING 106
SWIDTH 600 0
DWIDTH 7 0
BBX 6 12 0 -2
BITMAP
0C
0C
00
7C
0C
0C
0C
0C
0C
CC
C8
F8
ENDCHAR
STARTCHAR k
ENCODING 107
SWIDTH 600 0
DWIDTH 7 0
BBX 7 10 0 0
BITMAP
C0
40
40
4E
4C
58
78
58
4C
EE
ENDCHAR
STARTCHAR l
ENCODING 108
SWIDTH 600 0
DWIDTH 7 0
BBX 7 10 0 0
BITMAP
F0
30
30
30
30
30
30
30
30
1E
ENDCHAR
STARTCHAR m
ENCODING 109
SWIDTH 600 0
DWIDTH 7 0
BBX 7 7 0 0
BITMAP
F4
5E
56
56
56
56
56
ENDCHAR
STARTCHAR n
ENCODING 110
SWIDTH 600 0
DWIDTH 7 0
BBX 7 7 0 0
BITMAP
FC
64
64
64
64
64
E6
ENDCHAR
STARTCHAR o
ENCODING 111
SWIDTH 600 0
DWIDTH 7 0
BBX 7 7 0 0
BITMAP
38
6C
C6
C6
C6
6C
38
ENDCHAR
STARTCHAR p
ENCODING 112
SWIDTH 600 0
DWIDTH 7 0
BBX 7 9 0 -2
BITMAP
DC
66
46
46
46
44
7C
40
E0
ENDCHAR
STARTCHAR q
ENCODING 113
SWIDTH 600 0
DWIDTH 7 0
BBX 7 9 0 -2
BITMAP
3C
64
C4
C4
C4
6C
74
04
0E
ENDCHAR
STARTCHAR r
ENCODING 114
SWIDTH 600 0
DWIDTH 7 0
BBX 7 7 0 0
BITMAP
FE
32
30
30
30
30
F8
ENDCHAR
STARTCHAR s
ENCODING 115
SWIDTH 600 0
DWIDTH 7 0
BBX 5 7 1 0
BITMAP
78
C8
C0
78
18
88
F8
ENDCHAR
STARTCHAR t
ENCODING 116
SWIDTH 600 0
DWIDTH 7 0
BBX 6 9 0 0
BITMAP
30
30
FC
30
30
30
30
34
1C
ENDCHAR
STARTCHAR u
ENCODING 117
SWIDTH 600 0
DWIDTH 7 0
BBX 7 7 0 0
BITMAP
CC
44
44
44
44
6C
76
ENDCHAR
STARTCHAR v
ENCODING 118
SWIDTH 600 0
DWIDTH 7 0
BBX 7 7 0 0
BITMAP
E6
64
64
64
38
38
38
ENDCHAR
STARTCHAR w
ENCODING 119
SWIDTH 600 0
DWIDTH 7 0
BBX 7 7 0 0
BITMAP
C6
5A
5C
5C
6C
6C
6C
ENDCHAR
STARTCHAR x
ENCODING 120
SWIDTH 600 0
DWIDTH 7 0
BBX 7 7 0 0
BITMAP
EE
64
38
18
38
6C
EE
ENDCHAR
STARTCHAR y
ENCODING 121
SWIDTH 600 0
DWIDTH 7 0
BBX 7 9 0 -2
BITMAP
E6
64
64
38
38
18
10
30
78
ENDCHAR
STARTCHAR z
ENCODING 122
SWIDTH 600 0
DWIDTH 7 0
BBX 5 7 1 0
BITMAP
F8
98
30
70
60
C8
F8
ENDCHAR
STARTCHAR braceleft
ENCODING 123
SWIDTH 600 0
DWIDTH 7 0
BBX 5 12 1 -2
BITMAP
38
60
60
20
20
C0
20
20
20
60
60
38
ENDCHAR
STARTCHAR bar
ENCODING 124
SWIDTH 600 0
DWIDTH 7 0
BBX 1 12 3 -2
BITMAP
80
80
80
80
80
80
80
80
80
80
80
80
ENDCHAR
STARTCHAR braceright
ENCODING 125
SWIDTH 600 0
DWIDTH 7 0
BBX 5 12 1 -2
BITMAP
E0
30
30
30
30
18
30
20
30
30
30
E0
ENDCHAR
STARTCHAR asciitilde
ENCODING 126
SWIDTH 600 0
DWIDTH 7 0
BBX 6 2 1 3
BITMAP
EC
B8
ENDCHAR
STARTCHAR nonbreakingspace
ENCODING 160
SWIDTH 600 0
DWIDTH 7 0
BBX 1 1 0 0
BITMAP
00
ENDCHAR
STARTCHAR exclamdown
ENCODING 161
SWIDTH 600 0
DWIDTH 7 0
BBX 1 9 3 -2
BITMAP
80
00
80
80
80
80
80
80
80
ENDCHAR
STARTCHAR cent
ENCODING 162
SWIDTH 600 0
DWIDTH 7 0
BBX 5 9 1 0
BITMAP
10
78
D8
D0
D0
D0
78
10
10
ENDCHAR
STARTCHAR sterling
ENCODING 163
SWIDTH 600 0
DWIDTH 7 0
BBX 5 9 1 0
BITMAP
38
68
60
F0
60
60
40
C0
F8
ENDCHAR
STARTCHAR currency
ENCODING 164
SWIDTH 600 0
DWIDTH 7 0
BBX 7 8 0 1
BITMAP
82
7E
64
44
44
44
7C
82
ENDCHAR
STARTCHAR yen
ENCODING 165
SWIDTH 600 0
DWIDTH 7 0
BBX 7 9 0 0
BITMAP
E6
66
64
38
7C
18
7C
18
3C
ENDCHAR
STARTCHAR brokenbar
ENCODING 166
SWIDTH 600 0
DWIDTH 7 0
BBX 1 12 3 -2
BITMAP
80
80
80
80
80
00
00
80
80
80
80
80
ENDCHAR
STARTCHAR section
ENCODING 167
SWIDTH 600 0
DWIDTH 7 0
BBX 5 11 1 -2
BITMAP
78
C8
C0
F0
B8
88
E8
78
18
88
F8
ENDCHAR
STARTCHAR dieresis
ENCODING 168
SWIDTH 600 0
DWIDTH 7 0
BBX 4 1 2 8
BITMAP
B0
ENDCHAR
STARTCHAR copyright
ENCODING 169
SWIDTH 600 0
DWIDTH 7 0
BBX 7 10 0 0
BITMAP
38
44
5C
AA
A2
A2
A2
7A
44
38
ENDCHAR
STARTCHAR ordfeminine
ENCODING 170
SWIDTH 600 0
DWIDTH 7 0
BBX 6 5 1 4
BITMAP
F0
98
78
98
FC
ENDCHAR
STARTCHAR guillemotleft
ENCODING 171
SWIDTH 600 0
DWIDTH 7 0
BBX 7 5 0 1
BITMAP
36
6C
D8
6C
36
ENDCHAR
STARTCHAR logicalnot
ENCODING 172
SWIDTH 600 0
DWIDTH 7 0
BBX 7 3 0 1
BITMAP
FE
06
06
ENDCHAR
STARTCHAR sfthyphen
ENCODING 173
SWIDTH 600 0
DWIDTH 7 0
BBX 5 1 1 3
BITMAP
F8
ENDCHAR
STARTCHAR registered
ENCODING 174
SWIDTH 600 0
DWIDTH 7 0
BBX 7 10 0 0
BITMAP
38
44
7C
AA
AA
B2
AA
6A
44
38
ENDCHAR
STARTCHAR macron
ENCODING 175
SWIDTH 600 0
DWIDTH 7 0
BBX 7 1 0 10
BITMAP
FE
ENDCHAR
STARTCHAR degree
ENCODING 176
SWIDTH 600 0
DWIDTH 7 0
BBX 3 4 2 6
BITMAP
60
A0
A0
E0
ENDCHAR
STARTCHAR plusminus
ENCODING 177
SWIDTH 600 0
DWIDTH 7 0
BBX 6 8 1 0
BITMAP
20
20
20
FC
20
20
00
FC
ENDCHAR
STARTCHAR twosuperior
ENCODING 178
SWIDTH 600 0
DWIDTH 7 0
BBX 5 5 1 4
BITMAP
F0
98
10
60
F8
ENDCHAR
STARTCHAR threesuperior
ENCODING 179
SWIDTH 600 0
DWIDTH 7 0
BBX 5 5 1 4
BITMAP
F0
98
70
18
F8
ENDCHAR
STARTCHAR acute
ENCODING 180
SWIDTH 600 0
DWIDTH 7 0
BBX 3 2 2 8
BITMAP
60
C0
ENDCHAR
STARTCHAR mu
ENCODING 181
SWIDTH 600 0
DWIDTH 7 0
BBX 7 9 0 -2
BITMAP
EC
64
64
64
64
6C
76
60
60
ENDCHAR
STARTCHAR paragraph
ENCODING 182
SWIDTH 600 0
DWIDTH 7 0
BBX 5 11 1 -2
BITMAP
F8
E8
E8
E8
68
28
28
28
28
28
28
ENDCHAR
STARTCHAR periodcentered
ENCODING 183
SWIDTH 600 0
DWIDTH 7 0
BBX 2 2 3 5
BITMAP
C0
C0
ENDCHAR
STARTCHAR cedilla
ENCODING 184
SWIDTH 600 0
DWIDTH 7 0
BBX 3 3 2 -3
BITMAP
40
A0
E0
ENDCHAR
STARTCHAR onesuperior
ENCODING 185
SWIDTH 600 0
DWIDTH 7 0
BBX 4 5 2 5
BITMAP
E0
E0
60
60
F0
ENDCHAR
STARTCHAR ordmasculine
ENCODING 186
SWIDTH 600 0
DWIDTH 7 0
BBX 5 5 1 4
BITMAP
70
D8
88
C8
70
ENDCHAR
STARTCHAR guillemotright
ENCODING 187
SWIDTH 600 0
DWIDTH 7 0
BBX 7 5 0 1
BITMAP
D8
6C
36
6C
D8
ENDCHAR
STARTCHAR onequarter
ENCODING 188
SWIDTH 600 0
DWIDTH 7 0
BBX 7 10 0 0
BITMAP
22
C4
44
48
50
14
2C
2C
5E
C4
ENDCHAR
STARTCHAR onehalf
ENCODING 189
SWIDTH 600 0
DWIDTH 7 0
BBX 7 9 0 0
BITMAP
C4
48
48
50
1E
2A
26
48
8E
ENDCHAR
STARTCHAR threequarters
ENCODING 190
SWIDTH 600 0
DWIDTH 7 0
BBX 7 10 0 0
BITMAP
E6
24
48
28
30
F4
2C
2C
5E
44
ENDCHAR
STARTCHAR questiondown
ENCODING 191
SWIDTH 600 0
DWIDTH 7 0
BBX 5 9 1 -2
BITMAP
30
00
30
30
20
C0
C0
C8
F8
ENDCHAR
STARTCHAR Agrave
ENCODING 192
SWIDTH 600 0
DWIDTH 7 0
BBX 7 12 0 0
BITMAP
30
18
00
18
38
28
28
4C
7C
44
46
CE
ENDCHAR
STARTCHAR Aacute
ENCODING 193
SWIDTH 600 0
DWIDTH 7 0
BBX 7 12 0 0
BITMAP
0C
10
00
18
38
28
28
4C
7C
44
46
CE
ENDCHAR
STARTCHAR Acircumflex
ENCODING 194
SWIDTH 600 0
DWIDTH 7 0
BBX 7 12 0 0
BITMAP
38
2C
00
18
38
28
28
4C
7C
44
46
CE
ENDCHAR
STARTCHAR Atilde
ENCODING 195
SWIDTH 600 0
DWIDTH 7 0
BBX 7 12 0 0
BITMAP
34
38
00
18
38
28
28
4C
7C
44
46
CE
ENDCHAR
STARTCHAR Adieresis
ENCODING 196
SWIDTH 600 0
DWIDTH 7 0
BBX 7 11 0 0
BITMAP
2C
00
18
38
28
28
4C
7C
44
46
CE
ENDCHAR
STARTCHAR Aring
ENCODING 197
SWIDTH 600 0
DWIDTH 7 0
BBX 7 13 0 0
BITMAP
10
28
28
18
18
38
28
28
4C
7C
44
46
CE
ENDCHAR
STARTCHAR AE
ENCODING 198
SWIDTH 600 0
DWIDTH 7 0
BBX 7 9 0 0
BITMAP
1E
3A
38
38
5C
78
58
5A
DE
ENDCHAR
STARTCHAR Ccedilla
ENCODING 199
SWIDTH 600 0
DWIDTH 7 0
BBX 7 11 0 -2
BITMAP
3E
62
62
C0
C0
C0
60
62
3E
10
1C
ENDCHAR
STARTCHAR Egrave
ENCODING 200
SWIDTH 600 0
DWIDTH 7 0
BBX 7 12 0 0
BITMAP
60
10
00
FE
66
60
68
78
68
60
62
FE
ENDCHAR
STARTCHAR Eacute
ENCODING 201
SWIDTH 600 0
DWIDTH 7 0
BBX 7 12 0 0
BITMAP
0C
18
00
FE
66
60
68
78
68
60
62
FE
ENDCHAR
STARTCHAR Ecircumflex
ENCODING 202
SWIDTH 600 0
DWIDTH 7 0
BBX 7 12 0 0
BITMAP
18
2C
00
FE
66
60
68
78
68
60
62
FE
ENDCHAR
STARTCHAR Edieresis
ENCODING 203
SWIDTH 600 0
DWIDTH 7 0
BBX 7 11 0 0
BITMAP
28
00
FE
66
60
68
78
68
60
62
FE
ENDCHAR
STARTCHAR Igrave
ENCODING 204
SWIDTH 600 0
DWIDTH 7 0
BBX 5 12 1 0
BITMAP
60
30
00
F8
20
20
20
20
20
20
20
F8
ENDCHAR
STARTCHAR Iacute
ENCODING 205
SWIDTH 600 0
DWIDTH 7 0
BBX 5 12 1 0
BITMAP
38
20
00
F8
20
20
20
20
20
20
20
F8
ENDCHAR
STARTCHAR Icircumflex
ENCODING 206
SWIDTH 600 0
DWIDTH 7 0
BBX 5 12 1 0
BITMAP
70
58
00
F8
20
20
20
20
20
20
20
F8
ENDCHAR
STARTCHAR Idieresis
ENCODING 207
SWIDTH 600 0
DWIDTH 7 0
BBX 5 11 1 0
BITMAP
58
00
F8
20
20
20
20
20
20
20
F8
ENDCHAR
STARTCHAR Eth
ENCODING 208
SWIDTH 600 0
DWIDTH 7 0
BBX 7 9 0 0
BITMAP
F8
6C
66
66
F6
66
66
6C
F8
ENDCHAR
STARTCHAR Ntilde
ENCODING 209
SWIDTH 600 0
DWIDTH 7 0
BBX 7 12 0 0
BITMAP
34
58
00
C6
66
66
76
56
5E
4E
46
E6
ENDCHAR
STARTCHAR Ograve
ENCODING 210
SWIDTH 600 0
DWIDTH 7 0
BBX 7 13 0 0
BITMAP
20
10
08
00
38
6C
46
C6
C6
C6
46
6C
38
ENDCHAR
STARTCHAR Oacute
ENCODING 211
SWIDTH 600 0
DWIDTH 7 0
BBX 7 13 0 0
BITMAP
0C
18
10
00
38
6C
46
C6
C6
C6
46
6C
38
ENDCHAR
STARTCHAR Ocircumflex
ENCODING 212
SWIDTH 600 0
DWIDTH 7 0
BBX 7 13 0 0
BITMAP
10
28
24
00
38
6C
46
C6
C6
C6
46
6C
38
ENDCHAR
STARTCHAR Otilde
ENCODING 213
SWIDTH 600 0
DWIDTH 7 0
BBX 7 12 0 0
BITMAP
3C
00
00
38
6C
46
C6
C6
C6
46
6C
38
ENDCHAR
STARTCHAR Odieresis
ENCODING 214
SWIDTH 600 0
DWIDTH 7 0
BBX 7 12 0 0
BITMAP
2C
00
00
38
6C
46
C6
C6
C6
46
6C
38
ENDCHAR
STARTCHAR multiply
ENCODING 215
SWIDTH 600 0
DWIDTH 7 0
BBX 6 6 1 1
BITMAP
8C
D8
70
70
D8
8C
ENDCHAR
STARTCHAR Oslash
ENCODING 216
SWIDTH 600 0
DWIDTH 7 0
BBX 7 9 0 0
BITMAP
3A
6C
46
CE
D6
E6
66
64
F8
ENDCHAR
STARTCHAR Ugrave
ENCODING 217
SWIDTH 600 0
DWIDTH 7 0
BBX 7 13 0 0
BITMAP
30
10
08
00
E6
46
46
46
46
46
64
64
3C
ENDCHAR
STARTCHAR Uacute
ENCODING 218
SWIDTH 600 0
DWIDTH 7 0
BBX 7 13 0 0
BITMAP
0C
18
10
00
E6
46
46
46
46
46
64
64
3C
ENDCHAR
STARTCHAR Ucircumflex
ENCODING 219
SWIDTH 600 0
DWIDTH 7 0
BBX 7 13 0 0
BITMAP
18
38
24
00
E6
46
46
46
46
46
64
64
3C
ENDCHAR
STARTCHAR Udieresis
ENCODING 220
SWIDTH 600 0
DWIDTH 7 0
BBX 7 12 0 0
BITMAP
24
00
00
E6
46
46
46
46
46
64
64
3C
ENDCHAR
STARTCHAR Yacute
ENCODING 221
SWIDTH 600 0
DWIDTH 7 0
BBX 7 12 0 0
BITMAP
0C
18
00
E6
64
64
38
18
18
18
18
7C
ENDCHAR
STARTCHAR Thorn
ENCODING 222
SWIDTH 600 0
DWIDTH 7 0
BBX 7 9 0 0
BITMAP
F0
7C
66
66
66
66
7C
60
F0
ENDCHAR
STARTCHAR germandbls
ENCODING 223
SWIDTH 600 0
DWIDTH 7 0
BBX 7 10 0 0
BITMAP
38
6C
4C
48
58
5C
4E
46
4E
EC
ENDCHAR
STARTCHAR agrave
ENCODING 224
SWIDTH 600 0
DWIDTH 7 0
BBX 7 10 0 0
BITMAP
30
18
00
7C
4C
04
3C
64
CC
76
ENDCHAR
STARTCHAR aacute
ENCODING 225
SWIDTH 600 0
DWIDTH 7 0
BBX 7 10 0 0
BITMAP
0C
10
00
7C
4C
04
3C
64
CC
76
ENDCHAR
STARTCHAR acircumflex
ENCODING 226
SWIDTH 600 0
DWIDTH 7 0
BBX 7 10 0 0
BITMAP
18
2C
00
7C
4C
04
3C
64
CC
76
ENDCHAR
STARTCHAR atilde
ENCODING 227
SWIDTH 600 0
DWIDTH 7 0
BBX 7 10 0 0
BITMAP
34
58
00
7C
4C
04
3C
64
CC
76
ENDCHAR
STARTCHAR adieresis
ENCODING 228
SWIDTH 600 0
DWIDTH 7 0
BBX 7 9 0 0
BITMAP
2C
00
7C
4C
04
3C
64
CC
76
ENDCHAR
STARTCHAR aring
ENCODING 229
SWIDTH 600 0
DWIDTH 7 0
BBX 7 11 0 0
BITMAP
18
28
18
00
7C
4C
04
3C
64
CC
76
ENDCHAR
STARTCHAR ae
ENCODING 230
SWIDTH 600 0
DWIDTH 7 0
BBX 7 7 0 0
BITMAP
7C
5E
16
7E
D0
D8
6E
ENDCHAR
STARTCHAR ccedilla
ENCODING 231
SWIDTH 600 0
DWIDTH 7 0
BBX 7 9 0 -2
BITMAP
3E
62
C2
C0
C0
62
3E
10
18
ENDCHAR
STARTCHAR egrave
ENCODING 232
SWIDTH 600 0
DWIDTH 7 0
BBX 7 10 0 0
BITMAP
30
18
00
38
64
C6
FE
C0
62
3E
ENDCHAR
STARTCHAR eacute
ENCODING 233
SWIDTH 600 0
DWIDTH 7 0
BBX 7 10 0 0
BITMAP
0C
10
00
38
64
C6
FE
C0
62
3E
ENDCHAR
STARTCHAR ecircumflex
ENCODING 234
SWIDTH 600 0
DWIDTH 7 0
BBX 7 10 0 0
BITMAP
18
24
00
38
64
C6
FE
C0
62
3E
ENDCHAR
STARTCHAR edieresis
ENCODING 235
SWIDTH 600 0
DWIDTH 7 0
BBX 7 9 0 0
BITMAP
24
00
38
64
C6
FE
C0
62
3E
ENDCHAR
STARTCHAR igrave
ENCODING 236
SWIDTH 600 0
DWIDTH 7 0
BBX 6 10 1 0
BITMAP
60
30
00
F0
30
30
30
30
30
FC
ENDCHAR
STARTCHAR iacute
ENCODING 237
SWIDTH 600 0
DWIDTH 7 0
BBX 6 10 1 0
BITMAP
18
20
00
F0
30
30
30
30
30
FC
ENDCHAR
STARTCHAR icircumflex
ENCODING 238
SWIDTH 600 0
DWIDTH 7 0
BBX 6 10 1 0
BITMAP
30
48
00
F0
30
30
30
30
30
FC
ENDCHAR
STARTCHAR idieresis
ENCODING 239
SWIDTH 600 0
DWIDTH 7 0
BBX 6 9 1 0
BITMAP
58
00
F0
30
30
30
30
30
FC
ENDCHAR
STARTCHAR eth
ENCODING 240
SWIDTH 600 0
DWIDTH 7 0
BBX 7 11 0 0
BITMAP
08
F8
38
4C
3C
66
46
C6
46
64
38
ENDCHAR
STARTCHAR ntilde
ENCODING 241
SWIDTH 600 0
DWIDTH 7 0
BBX 7 10 0 0
BITMAP
28
58
00
FC
64
64
64
64
64
EE
ENDCHAR
STARTCHAR ograve
ENCODING 242
SWIDTH 600 0
DWIDTH 7 0
BBX 7 10 0 0
BITMAP
30
18
00
38
6C
C6
C6
C6
64
38
ENDCHAR
STARTCHAR oacute
ENCODING 243
SWIDTH 600 0
DWIDTH 7 0
BBX 7 10 0 0
BITMAP
0C
10
00
38
6C
C6
C6
C6
64
38
ENDCHAR
STARTCHAR ocircumflex
ENCODING 244
SWIDTH 600 0
DWIDTH 7 0
BBX 7 10 0 0
BITMAP
38
2C
00
38
6C
C6
C6
C6
64
38
ENDCHAR
STARTCHAR otilde
ENCODING 245
SWIDTH 600 0
DWIDTH 7 0
BBX 7 10 0 0
BITMAP
34
38
00
38
6C
C6
C6
C6
64
38
ENDCHAR
STARTCHAR odieresis
ENCODING 246
SWIDTH 600 0
DWIDTH 7 0
BBX 7 9 0 0
BITMAP
2C
00
38
6C
C6
C6
C6
64
38
ENDCHAR
STARTCHAR divide
ENCODING 247
SWIDTH 600 0
DWIDTH 7 0
BBX 6 8 1 0
BITMAP
20
20
00
00
FC
00
20
20
ENDCHAR
STARTCHAR oslash
ENCODING 248
SWIDTH 600 0
DWIDTH 7 0
BBX 7 7 0 0
BITMAP
3A
64
CE
D6
E6
64
F8
ENDCHAR
STARTCHAR ugrave
ENCODING 249
SWIDTH 600 0
DWIDTH 7 0
BBX 7 10 0 0
BITMAP
30
18
00
CC
44
44
44
44
6C
76
ENDCHAR
STARTCHAR uacute
ENCODING 250
SWIDTH 600 0
DWIDTH 7 0
BBX 7 10 0 0
BITMAP
1C
10
00
CC
44
44
44
44
6C
76
ENDCHAR
STARTCHAR ucircumflex
ENCODING 251
SWIDTH 600 0
DWIDTH 7 0
BBX 7 10 0 0
BITMAP
38
2C
00
CC
44
44
44
44
6C
76
ENDCHAR
STARTCHAR udieresis
ENCODING 252
SWIDTH 600 0
DWIDTH 7 0
BBX 7 9 0 0
BITMAP
2C
00
CC
44
44
44
44
6C
76
ENDCHAR
STARTCHAR yacute
ENCODING 253
SWIDTH 600 0
DWIDTH 7 0
BBX 7 12 0 -2
BITMAP
0C
10
00
E6
64
64
38
38
18
10
30
78
ENDCHAR
STARTCHAR thorn
ENCODING 254
SWIDTH 600 0
DWIDTH 7 0
BBX 7 12 0 -2
BITMAP
E0
60
60
7C
66
66
66
66
64
7C
60
E0
ENDCHAR
STARTCHAR ydieresis
ENCODING 255
SWIDTH 600 0
DWIDTH 7 0
BBX 7 11 0 -2
BITMAP
24
00
FE
64
64
38
38
18
10
30
78
ENDCHAR
STARTCHAR Amacron
ENCODING 256
SWIDTH 600 0
DWIDTH 7 0
BBX 7 11 0 0
BITMAP
7C
00
18
38
28
28
4C
7C
44
46
CE
ENDCHAR
STARTCHAR amacron
ENCODING 257
SWIDTH 600 0
DWIDTH 7 0
BBX 7 9 0 0
BITMAP
7C
00
7C
4C
04
3C
64
CC
76
ENDCHAR
STARTCHAR Abreve
ENCODING 258
SWIDTH 600 0
DWIDTH 7 0
BBX 7 12 0 0
BITMAP
24
38
00
18
38
28
28
4C
7C
44
46
CE
ENDCHAR
STARTCHAR abreve
ENCODING 259
SWIDTH 600 0
DWIDTH 7 0
BBX 7 10 0 0
BITMAP
24
38
00
7C
4C
04
3C
64
CC
76
ENDCHAR
STARTCHAR Aogonek
ENCODING 260
SWIDTH 600 0
DWIDTH 7 0
BBX 7 11 0 -2
BITMAP
18
38
28
28
4C
7C
44
46
CE
08
0E
ENDCHAR
STARTCHAR aogonek
ENCODING 261
SWIDTH 600 0
DWIDTH 7 0
BBX 7 9 0 -2
BITMAP
7C
44
3C
64
C4
4C
76
08
0C
ENDCHAR
STARTCHAR Cacute
ENCODING 262
SWIDTH 600 0
DWIDTH 7 0
BBX 7 13 0 0
BITMAP
04
08
10
00
3E
62
62
C0
C0
C0
60
62
3E
ENDCHAR
STARTCHAR cacute
ENCODING 263
SWIDTH 600 0
DWIDTH 7 0
BBX 7 10 0 0
BITMAP
0C
18
00
3E
62
C2
C0
C0
62
3E
ENDCHAR
STARTCHAR Ccircumflex
ENCODING 264
SWIDTH 600 0
DWIDTH 7 0
BBX 7 13 0 0
BITMAP
08
14
24
00
3E
62
62
C0
C0
C0
60
62
3E
ENDCHAR
STARTCHAR ccircumflex
ENCODING 265
SWIDTH 600 0
DWIDTH 7 0
BBX 7 10 0 0
BITMAP
18
34
00
3E
62
C2
C0
C0
62
3E
ENDCHAR
STARTCHAR Cdotaccent
ENCODING 266
SWIDTH 600 0
DWIDTH 7 0
BBX 7 12 0 0
BITMAP
08
08
00
3E
62
62
C0
C0
C0
60
62
3E
ENDCHAR
STARTCHAR cdotaccent
ENCODING 267
SWIDTH 600 0
DWIDTH 7 0
BBX 7 10 0 0
BITMAP
18
18
00
3E
62
C2
C0
C0
62
3E
ENDCHAR
STARTCHAR Ccaron
ENCODING 268
SWIDTH 600 0
DWIDTH 7 0
BBX 7 12 0 0
BITMAP
34
1C
00
3E
62
62
C0
C0
C0
60
62
3E
ENDCHAR
STARTCHAR ccaron
ENCODING 269
SWIDTH 600 0
DWIDTH 7 0
BBX 7 10 0 0
BITMAP
34
18
00
3E
62
C2
C0
C0
62
3E
ENDCHAR
STARTCHAR Dcaron
ENCODING 270
SWIDTH 600 0
DWIDTH 7 0
BBX 7 12 0 0
BITMAP
68
30
00
F8
6C
66
66
66
66
66
6C
F8
ENDCHAR
STARTCHAR dcaron
ENCODING 271
SWIDTH 600 0
DWIDTH 7 0
BBX 7 10 0 0
BITMAP
1A
0A
0A
7A
48
C8
C8
C8
D8
6C
ENDCHAR
STARTCHAR Dcroat
ENCODING 272
SWIDTH 600 0
DWIDTH 7 0
BBX 7 9 0 0
BITMAP
F8
6C
66
66
F6
66
66
6C
F8
ENDCHAR
STARTCHAR dcroat
ENCODING 273
SWIDTH 600 0
DWIDTH 7 0
BBX 7 10 0 0
BITMAP
0C
1E
04
3C
64
C4
C4
C4
4C
76
ENDCHAR
STARTCHAR Emacron
ENCODING 274
SWIDTH 600 0
DWIDTH 7 0
BBX 7 12 0 0
BITMAP
78
00
00
FE
66
60
68
78
68
60
62
FE
ENDCHAR
STARTCHAR emacron
ENCODING 275
SWIDTH 600 0
DWIDTH 7 0
BBX 7 9 0 0
BITMAP
3C
00
38
64
C6
FE
C0
62
3E
ENDCHAR
STARTCHAR Ebreve
ENCODING 276
SWIDTH 600 0
DWIDTH 7 0
BBX 7 12 0 0
BITMAP
4C
38
00
FE
66
60
68
78
68
60
62
FE
ENDCHAR
STARTCHAR ebreve
ENCODING 277
SWIDTH 600 0
DWIDTH 7 0
BBX 7 10 0 0
BITMAP
24
38
00
38
64
C6
FE
C0
62
3E
ENDCHAR
STARTCHAR Edotaccent
ENCODING 278
SWIDTH 600 0
DWIDTH 7 0
BBX 7 12 0 0
BITMAP
18
18
00
FE
66
60
68
78
68
60
62
FE
ENDCHAR
STARTCHAR edotaccent
ENCODING 279
SWIDTH 600 0
DWIDTH 7 0
BBX 7 10 0 0
BITMAP
18
18
00
38
64
C6
FE
C0
62
3E
ENDCHAR
STARTCHAR Eogonek
ENCODING 280
SWIDTH 600 0
DWIDTH 7 0
BBX 7 11 0 -2
BITMAP
FE
66
60
78
68
68
62
62
FE
08
0E
ENDCHAR
STARTCHAR eogonek
ENCODING 281
SWIDTH 600 0
DWIDTH 7 0
BBX 7 9 0 -2
BITMAP
38
64
C6
FE
C0
62
3E
10
1C
ENDCHAR
STARTCHAR Ecaron
ENCODING 282
SWIDTH 600 0
DWIDTH 7 0
BBX 7 12 0 0
BITMAP
24
18
00
FE
66
60
68
78
68
60
62
FE
ENDCHAR
STARTCHAR ecaron
ENCODING 283
SWIDTH 600 0
DWIDTH 7 0
BBX 7 10 0 0
BITMAP
24
18
00
38
64
C6
FE
C0
62
3E
ENDCHAR
STARTCHAR Gcircumflex
ENCODING 284
SWIDTH 600 0
DWIDTH 7 0
BBX 7 13 0 0
BITMAP
08
14
24
00
3E
62
62
C0
CE
C6
66
66
3E
ENDCHAR
STARTCHAR gcircumflex
ENCODING 285
SWIDTH 600 0
DWIDTH 7 0
BBX 7 12 0 -2
BITMAP
38
6C
00
3E
64
C4
C4
4C
74
04
4C
78
ENDCHAR
STARTCHAR Gbreve
ENCODING 286
SWIDTH 600 0
DWIDTH 7 0
BBX 7 12 0 0
BITMAP
24
1C
00
3E
62
62
C0
CE
C6
66
66
3E
ENDCHAR
STARTCHAR gbreve
ENCODING 287
SWIDTH 600 0
DWIDTH 7 0
BBX 7 12 0 -2
BITMAP
4C
38
00
3E
64
C4
C4
4C
74
04
4C
78
ENDCHAR
STARTCHAR Gdotaccent
ENCODING 288
SWIDTH 600 0
DWIDTH 7 0
BBX 7 12 0 0
BITMAP
08
08
00
3E
62
62
C0
CE
C6
66
66
3E
ENDCHAR
STARTCHAR gdotaccent
ENCODING 289
SWIDTH 600 0
DWIDTH 7 0
BBX 7 12 0 -2
BITMAP
18
18
00
3E
64
C4
C4
4C
74
04
4C
78
ENDCHAR
STARTCHAR Gcommaaccent
ENCODING 290
SWIDTH 600 0
DWIDTH 7 0
BBX 7 11 0 -2
BITMAP
3E
62
62
C0
CE
C6
66
66
3E
18
18
ENDCHAR
STARTCHAR gcommaaccent
ENCODING 291
SWIDTH 600 0
DWIDTH 7 0
BBX 7 15 0 -2
BITMAP
08
10
10
18
18
00
3E
64
C4
C4
4C
74
04
4C
78
ENDCHAR
STARTCHAR Hcircumflex
ENCODING 292
SWIDTH 600 0
DWIDTH 7 0
BBX 7 12 0 0
BITMAP
38
2C
00
EE
64
64
64
7C
64
64
64
EE
ENDCHAR
STARTCHAR hcircumflex
ENCODING 293
SWIDTH 600 0
DWIDTH 7 0
BBX 7 13 0 0
BITMAP
10
28
44
E0
60
60
7C
64
64
64
64
64
EE
ENDCHAR
STARTCHAR Hbar
ENCODING 294
SWIDTH 600 0
DWIDTH 7 0
BBX 7 9 0 0
BITMAP
EE
FE
64
64
7C
64
64
64
EE
ENDCHAR
STARTCHAR hbar
ENCODING 295
SWIDTH 600 0
DWIDTH 7 0
BBX 7 10 0 0
BITMAP
E0
60
F0
7C
64
64
64
64
64
EE
ENDCHAR
STARTCHAR Itilde
ENCODING 296
SWIDTH 600 0
DWIDTH 7 0
BBX 5 12 1 0
BITMAP
68
70
00
F8
20
20
20
20
20
20
20
F8
ENDCHAR
STARTCHAR itilde
ENCODING 297
SWIDTH 600 0
DWIDTH 7 0
BBX 6 10 1 0
BITMAP
68
B0
00
F0
30
30
30
30
30
FC
ENDCHAR
STARTCHAR Imacron
ENCODING 298
SWIDTH 600 0
DWIDTH 7 0
BBX 5 11 1 0
BITMAP
F8
00
F8
20
20
20
20
20
20
20
F8
ENDCHAR
STARTCHAR imacron
ENCODING 299
SWIDTH 600 0
DWIDTH 7 0
BBX 6 9 1 0
BITMAP
F8
00
F0
30
30
30
30
30
FC
ENDCHAR
STARTCHAR Ibreve
ENCODING 300
SWIDTH 600 0
DWIDTH 7 0
BBX 5 12 1 0
BITMAP
48
70
00
F8
20
20
20
20
20
20
20
F8
ENDCHAR
STARTCHAR ibreve
ENCODING 301
SWIDTH 600 0
DWIDTH 7 0
BBX 6 10 1 0
BITMAP
48
70
00
F0
30
30
30
30
30
FC
ENDCHAR
STARTCHAR Iogonek
ENCODING 302
SWIDTH 600 0
DWIDTH 7 0
BBX 5 11 1 -2
BITMAP
F8
20
20
20
20
20
20
20
F8
20
38
ENDCHAR
STARTCHAR iogonek
ENCODING 303
SWIDTH 600 0
DWIDTH 7 0
BBX 6 12 1 -2
BITMAP
30
30
00
F0
30
30
30
30
30
FC
10
18
ENDCHAR
STARTCHAR Idotaccent
ENCODING 304
SWIDTH 600 0
DWIDTH 7 0
BBX 5 12 1 0
BITMAP
20
20
00
F8
20
20
20
20
20
20
20
F8
ENDCHAR
STARTCHAR dotlessi
ENCODING 305
SWIDTH 600 0
DWIDTH 7 0
BBX 6 7 1 0
BITMAP
F0
30
30
30
30
30
FC
ENDCHAR
STARTCHAR IJ
ENCODING 306
SWIDTH 600 0
DWIDTH 7 0
BBX 7 9 0 0
BITMAP
EE
46
46
46
46
46
46
46
FC
ENDCHAR
STARTCHAR ij
ENCODING 307
SWIDTH 600 0
DWIDTH 7 0
BBX 6 12 0 -2
BITMAP
64
64
00
EC
64
64
64
64
64
E4
14
1C
ENDCHAR
STARTCHAR Jcircumflex
ENCODING 308
SWIDTH 600 0
DWIDTH 7 0
BBX 6 13 1 0
BITMAP
10
28
44
00
7C
10
10
10
10
10
90
90
F0
ENDCHAR
STARTCHAR jcircumflex
ENCODING 309
SWIDTH 600 0
DWIDTH 7 0
BBX 6 12 0 -2
BITMAP
18
24
00
7C
0C
0C
0C
0C
0C
CC
C8
F8
ENDCHAR
STARTCHAR Kcommaaccent
ENCODING 310
SWIDTH 600 0
DWIDTH 7 0
BBX 7 11 0 -2
BITMAP
E6
64
78
70
78
6C
6C
66
EE
18
18
ENDCHAR
STARTCHAR kcommaaccent
ENCODING 311
SWIDTH 600 0
DWIDTH 7 0
BBX 7 12 0 -2
BITMAP
E0
60
60
6E
68
78
78
6C
6C
EE
18
18
ENDCHAR
STARTCHAR kgreenlandic
ENCODING 312
SWIDTH 600 0
DWIDTH 7 0
BBX 7 7 0 0
BITMAP
EE
6C
78
78
78
6C
EE
ENDCHAR
STARTCHAR Lacute
ENCODING 313
SWIDTH 600 0
DWIDTH 7 0
BBX 7 12 0 0
BITMAP
18
30
00
F0
60
60
60
60
60
62
62
FE
ENDCHAR
STARTCHAR lacute
ENCODING 314
SWIDTH 600 0
DWIDTH 7 0
BBX 7 13 0 0
BITMAP
18
10
20
F0
30
30
30
30
30
30
30
30
1E
ENDCHAR
STARTCHAR Lcommaaccent
ENCODING 315
SWIDTH 600 0
DWIDTH 7 0
BBX 7 11 0 -2
BITMAP
F0
60
60
60
60
60
62
62
FE
18
18
ENDCHAR
STARTCHAR lcommaaccent
ENCODING 316
SWIDTH 600 0
DWIDTH 7 0
BBX 7 12 0 -2
BITMAP
F0
30
30
30
30
30
30
30
30
1E
18
18
ENDCHAR
STARTCHAR Lcaron
ENCODING 317
SWIDTH 600 0
DWIDTH 7 0
BBX 7 9 0 0
BITMAP
F6
66
62
64
60
60
62
62
FE
ENDCHAR
STARTCHAR lcaron
ENCODING 318
SWIDTH 600 0
DWIDTH 7 0
BBX 7 10 0 0
BITMAP
F2
32
32
34
30
30
30
30
30
1E
ENDCHAR
STARTCHAR Ldot
ENCODING 319
SWIDTH 600 0
DWIDTH 7 0
BBX 7 9 0 0
BITMAP
F0
60
60
6C
6C
60
62
62
FE
ENDCHAR
STARTCHAR ldot
ENCODING 320
SWIDTH 600 0
DWIDTH 7 0
BBX 7 10 0 0
BITMAP
F0
30
30
30
36
36
30
30
30
1E
ENDCHAR
STARTCHAR Lslash
ENCODING 321
SWIDTH 600 0
DWIDTH 7 0
BBX 7 9 0 0
BITMAP
F0
60
68
78
60
E0
62
62
FE
ENDCHAR
STARTCHAR lslash
ENCODING 322
SWIDTH 600 0
DWIDTH 7 0
BBX 7 10 0 0
BITMAP
F0
30
30
34
38
70
70
30
30
1E
ENDCHAR
STARTCHAR Nacute
ENCODING 323
SWIDTH 600 0
DWIDTH 7 0
BBX 7 12 0 0
BITMAP
0C
10
00
C6
66
66
76
56
5E
4E
46
E6
ENDCHAR
STARTCHAR nacute
ENCODING 324
SWIDTH 600 0
DWIDTH 7 0
BBX 7 10 0 0
BITMAP
18
30
00
FC
64
64
64
64
64
EE
ENDCHAR
STARTCHAR Ncommaaccent
ENCODING 325
SWIDTH 600 0
DWIDTH 7 0
BBX 7 11 0 -2
BITMAP
C6
66
66
76
56
5E
4E
46
E6
18
18
ENDCHAR
STARTCHAR ncommaaccent
ENCODING 326
SWIDTH 600 0
DWIDTH 7 0
BBX 7 9 0 -2
BITMAP
FC
64
64
64
64
64
EE
18
18
ENDCHAR
STARTCHAR Ncaron
ENCODING 327
SWIDTH 600 0
DWIDTH 7 0
BBX 7 12 0 0
BITMAP
6C
38
00
C6
66
66
76
56
5E
4E
46
E6
ENDCHAR
STARTCHAR ncaron
ENCODING 328
SWIDTH 600 0
DWIDTH 7 0
BBX 7 10 0 0
BITMAP
2C
18
00
FC
64
64
64
64
64
EE
ENDCHAR
STARTCHAR napostrophe
ENCODING 329
SWIDTH 600 0
DWIDTH 7 0
BBX 7 11 0 0
BITMAP
C0
C0
80
80
FC
64
64
64
64
64
EE
ENDCHAR
STARTCHAR Eng
ENCODING 330
SWIDTH 600 0
DWIDTH 7 0
BBX 7 11 0 -2
BITMAP
C6
66
66
76
56
5E
4E
46
E6
14
1C
ENDCHAR
STARTCHAR eng
ENCODING 331
SWIDTH 600 0
DWIDTH 7 0
BBX 6 9 0 -2
BITMAP
FC
64
64
64
64
64
E4
14
1C
ENDCHAR
STARTCHAR Omacron
ENCODING 332
SWIDTH 600 0
DWIDTH 7 0
BBX 7 12 0 0
BITMAP
7C
00
00
38
6C
46
C6
C6
C6
46
6C
38
ENDCHAR
STARTCHAR omacron
ENCODING 333
SWIDTH 600 0
DWIDTH 7 0
BBX 7 9 0 0
BITMAP
7C
00
38
6C
C6
C6
C6
64
38
ENDCHAR
STARTCHAR Obreve
ENCODING 334
SWIDTH 600 0
DWIDTH 7 0
BBX 7 13 0 0
BITMAP
44
24
38
00
38
6C
46
C6
C6
C6
46
6C
38
ENDCHAR
STARTCHAR obreve
ENCODING 335
SWIDTH 600 0
DWIDTH 7 0
BBX 7 10 0 0
BITMAP
24
38
00
38
6C
C6
C6
C6
64
38
ENDCHAR
STARTCHAR Ohungarumlaut
ENCODING 336
SWIDTH 600 0
DWIDTH 7 0
BBX 7 12 0 0
BITMAP
14
28
00
38
6C
46
C6
C6
C6
46
6C
38
ENDCHAR
STARTCHAR ohungarumlaut
ENCODING 337
SWIDTH 600 0
DWIDTH 7 0
BBX 7 10 0 0
BITMAP
14
28
00
38
6C
C6
C6
C6
64
38
ENDCHAR
STARTCHAR OE
ENCODING 338
SWIDTH 600 0
DWIDTH 7 0
BBX 7 9 0 0
BITMAP
7E
5A
D8
DC
DC
DC
D8
5A
7E
ENDCHAR
STARTCHAR oe
ENCODING 339
SWIDTH 600 0
DWIDTH 7 0
BBX 7 7 0 0
BITMAP
7C
DE
D6
DE
D8
D8
7E
ENDCHAR
STARTCHAR Racute
ENCODING 340
SWIDTH 600 0
DWIDTH 7 0
BBX 7 12 0 0
BITMAP
18
30
00
FC
6C
6C
6C
78
78
6C
6C
F6
ENDCHAR
STARTCHAR racute
ENCODING 341
SWIDTH 600 0
DWIDTH 7 0
BBX 7 10 0 0
BITMAP
18
30
00
FE
32
30
30
30
30
F8
ENDCHAR
STARTCHAR Rcommaaccent
ENCODING 342
SWIDTH 600 0
DWIDTH 7 0
BBX 7 11 0 -2
BITMAP
FC
6C
6C
78
78
7C
6C
64
F6
18
18
ENDCHAR
STARTCHAR rcommaaccent
ENCODING 343
SWIDTH 600 0
DWIDTH 7 0
BBX 7 9 0 -2
BITMAP
FE
32
30
30
30
30
F8
30
30
ENDCHAR
STARTCHAR Rcaron
ENCODING 344
SWIDTH 600 0
DWIDTH 7 0
BBX 7 12 0 0
BITMAP
48
30
00
FC
6C
6C
6C
78
78
6C
6C
F6
ENDCHAR
STARTCHAR rcaron
ENCODING 345
SWIDTH 600 0
DWIDTH 7 0
BBX 7 10 0 0
BITMAP
6C
38
00
FE
32
30
30
30
30
F8
ENDCHAR
STARTCHAR Sacute
ENCODING 346
SWIDTH 600 0
DWIDTH 7 0
BBX 6 13 1 0
BITMAP
18
30
20
00
78
C8
C8
E0
70
18
8C
88
F0
ENDCHAR
STARTCHAR sacute
ENCODING 347
SWIDTH 600 0
DWIDTH 7 0
BBX 5 10 1 0
BITMAP
18
20
00
78
C8
C0
78
18
88
F8
ENDCHAR
STARTCHAR Scircumflex
ENCODING 348
SWIDTH 600 0
DWIDTH 7 0
BBX 6 13 1 0
BITMAP
30
70
48
00
78
C8
C8
E0
70
18
8C
88
F0
ENDCHAR
STARTCHAR scircumflex
ENCODING 349
SWIDTH 600 0
DWIDTH 7 0
BBX 5 10 1 0
BITMAP
30
58
00
78
C8
C0
78
18
88
F8
ENDCHAR
STARTCHAR Scedilla
ENCODING 350
SWIDTH 600 0
DWIDTH 7 0
BBX 6 11 1 -2
BITMAP
78
C8
C8
E0
70
18
8C
88
F0
20
70
ENDCHAR
STARTCHAR scedilla
ENCODING 351
SWIDTH 600 0
DWIDTH 7 0
BBX 5 9 1 -2
BITMAP
78
C8
C0
78
18
88
F8
20
30
ENDCHAR
STARTCHAR Scaron
ENCODING 352
SWIDTH 600 0
DWIDTH 7 0
BBX 6 12 1 0
BITMAP
58
70
00
78
C8
C0
E0
70
18
8C
88
F0
ENDCHAR
STARTCHAR scaron
ENCODING 353
SWIDTH 600 0
DWIDTH 7 0
BBX 5 10 1 0
BITMAP
58
30
00
78
C8
C0
78
98
88
F8
ENDCHAR
STARTCHAR Tcommaaccent
ENCODING 354
SWIDTH 600 0
DWIDTH 7 0
BBX 7 11 0 -2
BITMAP
FE
92
10
10
10
10
10
10
7C
10
18
ENDCHAR
STARTCHAR tcommaaccent
ENCODING 355
SWIDTH 600 0
DWIDTH 7 0
BBX 6 11 0 -2
BITMAP
30
30
FC
30
30
30
30
34
1C
08
18
ENDCHAR
STARTCHAR Tcaron
ENCODING 356
SWIDTH 600 0
DWIDTH 7 0
BBX 7 12 0 0
BITMAP
2C
38
00
FE
92
10
10
10
10
10
10
7C
ENDCHAR
STARTCHAR tcaron
ENCODING 357
SWIDTH 600 0
DWIDTH 7 0
BBX 6 11 0 0
BITMAP
04
04
34
34
FC
30
30
30
30
34
1C
ENDCHAR
STARTCHAR Tbar
ENCODING 358
SWIDTH 600 0
DWIDTH 7 0
BBX 7 9 0 0
BITMAP
FE
92
10
10
7C
10
10
10
7C
ENDCHAR
STARTCHAR tbar
ENCODING 359
SWIDTH 600 0
DWIDTH 7 0
BBX 6 9 0 0
BITMAP
30
30
FC
30
30
7C
30
34
1C
ENDCHAR
STARTCHAR Utilde
ENCODING 360
SWIDTH 600 0
DWIDTH 7 0
BBX 7 12 0 0
BITMAP
3C
00
00
E6
46
46
46
46
46
64
64
3C
ENDCHAR
STARTCHAR utilde
ENCODING 361
SWIDTH 600 0
DWIDTH 7 0
BBX 7 10 0 0
BITMAP
34
58
00
CC
44
44
44
44
6C
76
ENDCHAR
STARTCHAR Umacron
ENCODING 362
SWIDTH 600 0
DWIDTH 7 0
BBX 7 12 0 0
BITMAP
3C
00
00
E6
46
46
46
46
46
64
64
3C
ENDCHAR
STARTCHAR umacron
ENCODING 363
SWIDTH 600 0
DWIDTH 7 0
BBX 7 9 0 0
BITMAP
7C
00
CC
44
44
44
44
6C
76
ENDCHAR
STARTCHAR Ubreve
ENCODING 364
SWIDTH 600 0
DWIDTH 7 0
BBX 7 13 0 0
BITMAP
24
24
18
00
E6
46
46
46
46
46
64
64
3C
ENDCHAR
STARTCHAR ubreve
ENCODING 365
SWIDTH 600 0
DWIDTH 7 0
BBX 7 10 0 0
BITMAP
4C
38
00
CC
44
44
44
44
6C
76
ENDCHAR
STARTCHAR Uring
ENCODING 366
SWIDTH 600 0
DWIDTH 7 0
BBX 7 14 0 0
BITMAP
18
28
28
18
00
E6
46
46
46
46
46
64
64
3C
ENDCHAR
STARTCHAR uring
ENCODING 367
SWIDTH 600 0
DWIDTH 7 0
BBX 7 11 0 0
BITMAP
30
28
38
00
CC
44
44
44
44
6C
76
ENDCHAR
STARTCHAR Uhungarumlaut
ENCODING 368
SWIDTH 600 0
DWIDTH 7 0
BBX 7 12 0 0
BITMAP
1E
28
00
E6
46
46
46
46
46
64
64
3C
ENDCHAR
STARTCHAR uhungarumlaut
ENCODING 369
SWIDTH 600 0
DWIDTH 7 0
BBX 7 10 0 0
BITMAP
14
28
00
CC
44
44
44
44
6C
76
ENDCHAR
STARTCHAR Uogonek
ENCODING 370
SWIDTH 600 0
DWIDTH 7 0
BBX 7 11 0 -2
BITMAP
E6
46
46
46
46
46
64
64
3C
10
18
ENDCHAR
STARTCHAR uogonek
ENCODING 371
SWIDTH 600 0
DWIDTH 7 0
BBX 7 9 0 -2
BITMAP
CC
44
44
44
44
6C
76
08
0C
ENDCHAR
STARTCHAR Wcircumflex
ENCODING 372
SWIDTH 600 0
DWIDTH 7 0
BBX 7 12 0 0
BITMAP
18
24
00
C6
D2
5A
5C
5C
6C
6C
6C
6C
ENDCHAR
STARTCHAR wcircumflex
ENCODING 373
SWIDTH 600 0
DWIDTH 7 0
BBX 7 10 0 0
BITMAP
18
24
00
C6
5A
5C
5C
6C
6C
6C
ENDCHAR
STARTCHAR Ycircumflex
ENCODING 374
SWIDTH 600 0
DWIDTH 7 0
BBX 7 12 0 0
BITMAP
18
24
00
E6
64
64
38
18
18
18
18
7C
ENDCHAR
STARTCHAR ycircumflex
ENCODING 375
SWIDTH 600 0
DWIDTH 7 0
BBX 7 12 0 -2
BITMAP
18
24
00
E6
64
64
38
38
18
10
30
78
ENDCHAR
STARTCHAR Ydieresis
ENCODING 376
SWIDTH 600 0
DWIDTH 7 0
BBX 7 11 0 0
BITMAP
24
00
E6
64
64
38
18
18
18
18
7C
ENDCHAR
STARTCHAR Zacute
ENCODING 377
SWIDTH 600 0
DWIDTH 7 0
BBX 6 12 1 0
BITMAP
18
20
00
F8
98
18
30
30
60
CC
CC
FC
ENDCHAR
STARTCHAR zacute
ENCODING 378
SWIDTH 600 0
DWIDTH 7 0
BBX 5 10 1 0
BITMAP
18
20
00
F8
98
30
70
60
C8
F8
ENDCHAR
STARTCHAR Zdotaccent
ENCODING 379
SWIDTH 600 0
DWIDTH 7 0
BBX 6 12 1 0
BITMAP
30
30
00
F8
98
18
30
30
60
CC
CC
FC
ENDCHAR
STARTCHAR zdotaccent
ENCODING 380
SWIDTH 600 0
DWIDTH 7 0
BBX 5 10 1 0
BITMAP
20
20
00
F8
98
30
70
60
C8
F8
ENDCHAR
STARTCHAR Zcaron
ENCODING 381
SWIDTH 600 0
DWIDTH 7 0
BBX 6 12 1 0
BITMAP
58
30
00
F8
98
18
30
30
60
CC
CC
FC
ENDCHAR
STARTCHAR zcaron
ENCODING 382
SWIDTH 600 0
DWIDTH 7 0
BBX 5 10 1 0
BITMAP
58
30
00
F8
98
30
70
60
C8
F8
ENDCHAR
STARTCHAR longs
ENCODING 383
SWIDTH 600 0
DWIDTH 7 0
BBX 6 10 1 0
BITMAP
3C
64
60
E0
60
60
60
60
60
F8
ENDCHAR
STARTCHAR florin
ENCODING 402
SWIDTH 600 0
DWIDTH 7 0
BBX 7 12 0 -3
BITMAP
0E
12
30
30
78
20
60
60
60
60
40
C0
ENDCHAR
STARTCHAR Aringacute
ENCODING 506
SWIDTH 600 0
DWIDTH 7 0
BBX 7 14 0 0
BITMAP
0C
08
10
28
28
18
38
38
28
4C
7C
44
46
CE
ENDCHAR
STARTCHAR aringacute
ENCODING 507
SWIDTH 600 0
DWIDTH 7 0
BBX 7 13 0 0
BITMAP
0C
08
10
28
18
00
7C
4C
04
3C
64
CC
76
ENDCHAR
STARTCHAR AEacute
ENCODING 508
SWIDTH 600 0
DWIDTH 7 0
BBX 7 12 0 0
BITMAP
06
08
00
1E
3A
38
38
5C
78
58
5A
DE
ENDCHAR
STARTCHAR aeacute
ENCODING 509
SWIDTH 600 0
DWIDTH 7 0
BBX 7 10 0 0
BITMAP
0C
10
00
7C
5E
16
7E
D0
D8
6E
ENDCHAR
STARTCHAR Oslashacute
ENCODING 510
SWIDTH 600 0
DWIDTH 7 0
BBX 7 13 0 0
BITMAP
08
18
10
00
3A
6C
46
CE
D6
E6
66
64
F8
ENDCHAR
STARTCHAR oslashacute
ENCODING 511
SWIDTH 600 0
DWIDTH 7 0
BBX 7 10 0 0
BITMAP
18
10
00
3A
64
CE
D6
E6
64
F8
ENDCHAR
STARTCHAR Scommaaccent
ENCODING 536
SWIDTH 600 0
DWIDTH 7 0
BBX 6 11 1 -2
BITMAP
78
C8
C8
E0
70
18
8C
88
F0
30
70
ENDCHAR
STARTCHAR scommaaccent
ENCODING 537
SWIDTH 600 0
DWIDTH 7 0
BBX 5 9 1 -2
BITMAP
78
C8
C0
78
18
88
F8
30
30
ENDCHAR
STARTCHAR Tcommabelow
ENCODING 538
SWIDTH 600 0
DWIDTH 7 0
BBX 7 11 0 -2
BITMAP
FE
92
10
10
10
10
10
10
7C
18
18
ENDCHAR
STARTCHAR tcommabelow
ENCODING 539
SWIDTH 600 0
DWIDTH 7 0
BBX 6 11 0 -2
BITMAP
30
30
FC
30
30
30
30
34
1C
18
18
ENDCHAR
STARTCHAR circumflex
ENCODING 710
SWIDTH 600 0
DWIDTH 7 0
BBX 4 2 2 8
BITMAP
E0
B0
ENDCHAR
STARTCHAR caron
ENCODING 711
SWIDTH 600 0
DWIDTH 7 0
BBX 4 2 2 8
BITMAP
B0
E0
ENDCHAR
STARTCHAR macron
ENCODING 713
SWIDTH 600 0
DWIDTH 7 0
BBX 5 1 1 8
BITMAP
F8
ENDCHAR
STARTCHAR breve
ENCODING 728
SWIDTH 600 0
DWIDTH 7 0
BBX 4 2 2 8
BITMAP
90
E0
ENDCHAR
STARTCHAR dotaccent
ENCODING 729
SWIDTH 600 0
DWIDTH 7 0
BBX 1 2 3 8
BITMAP
80
80
ENDCHAR
STARTCHAR ring
ENCODING 730
SWIDTH 600 0
DWIDTH 7 0
BBX 3 3 2 8
BITMAP
60
A0
E0
ENDCHAR
STARTCHAR ogonek
ENCODING 731
SWIDTH 600 0
DWIDTH 7 0
BBX 3 3 2 -3
BITMAP
40
80
60
ENDCHAR
STARTCHAR tilde
ENCODING 732
SWIDTH 600 0
DWIDTH 7 0
BBX 4 2 2 8
BITMAP
D0
E0
ENDCHAR
STARTCHAR hungarumlaut
ENCODING 733
SWIDTH 600 0
DWIDTH 7 0
BBX 5 2 1 8
BITMAP
78
B0
ENDCHAR
STARTCHAR tonos
ENCODING 900
SWIDTH 600 0
DWIDTH 7 0
BBX 2 3 3 8
BITMAP
C0
80
80
ENDCHAR
STARTCHAR dieresistonos
ENCODING 901
SWIDTH 600 0
DWIDTH 7 0
BBX 5 3 1 8
BITMAP
30
20
A8
ENDCHAR
STARTCHAR Alphatonos
ENCODING 902
SWIDTH 600 0
DWIDTH 7 0
BBX 7 11 0 0
BITMAP
40
C0
98
38
28
28
4C
7C
44
46
CE
ENDCHAR
STARTCHAR anoteleia
ENCODING 903
SWIDTH 600 0
DWIDTH 7 0
BBX 2 2 3 5
BITMAP
C0
C0
ENDCHAR
STARTCHAR Epsilontonos
ENCODING 904
SWIDTH 600 0
DWIDTH 7 0
BBX 7 10 0 0
BITMAP
C0
BE
32
30
34
3C
30
32
32
7E
ENDCHAR
STARTCHAR Etatonos
ENCODING 905
SWIDTH 600 0
DWIDTH 7 0
BBX 7 10 0 0
BITMAP
C0
B6
36
36
36
3E
36
36
36
76
ENDCHAR
STARTCHAR Iotatonos
ENCODING 906
SWIDTH 600 0
DWIDTH 7 0
BBX 7 10 0 0
BITMAP
C0
BE
18
18
18
18
18
18
18
7E
ENDCHAR
STARTCHAR Omicrontonos
ENCODING 908
SWIDTH 600 0
DWIDTH 7 0
BBX 7 11 0 0
BITMAP
C0
80
BC
24
66
66
66
66
66
24
3C
ENDCHAR
STARTCHAR Upsilontonos
ENCODING 910
SWIDTH 600 0
DWIDTH 7 0
BBX 7 11 0 0
BITMAP
C0
80
E2
34
34
18
18
18
18
18
3C
ENDCHAR
STARTCHAR Omegatonos
ENCODING 911
SWIDTH 600 0
DWIDTH 7 0
BBX 7 11 0 0
BITMAP
C0
80
BC
64
66
66
66
66
64
24
6E
ENDCHAR
STARTCHAR iotadieresistonos
ENCODING 912
SWIDTH 600 0
DWIDTH 7 0
BBX 6 11 0 0
BITMAP
10
10
E4
00
30
30
30
30
30
30
1C
ENDCHAR
STARTCHAR Alpha
ENCODING 913
SWIDTH 600 0
DWIDTH 7 0
BBX 7 9 0 0
BITMAP
18
38
28
28
4C
7C
44
46
CE
ENDCHAR
STARTCHAR Beta
ENCODING 914
SWIDTH 600 0
DWIDTH 7 0
BBX 7 9 0 0
BITMAP
FC
4C
44
4C
78
4C
46
46
FC
ENDCHAR
STARTCHAR Gamma
ENCODING 915
SWIDTH 600 0
DWIDTH 7 0
BBX 7 9 0 0
BITMAP
FE
66
60
60
60
60
60
60
F0
ENDCHAR
STARTCHAR uni0394
ENCODING 916
SWIDTH 600 0
DWIDTH 7 0
BBX 7 9 0 0
BITMAP
18
38
28
2C
4C
4C
46
86
FE
ENDCHAR
STARTCHAR Epsilon
ENCODING 917
SWIDTH 600 0
DWIDTH 7 0
BBX 7 9 0 0
BITMAP
FE
66
60
68
78
68
60
62
FE
ENDCHAR
STARTCHAR Zeta
ENCODING 918
SWIDTH 600 0
DWIDTH 7 0
BBX 6 9 1 0
BITMAP
F8
98
18
30
30
60
CC
CC
FC
ENDCHAR
STARTCHAR Eta
ENCODING 919
SWIDTH 600 0
DWIDTH 7 0
BBX 7 9 0 0
BITMAP
EE
44
44
44
7C
44
44
44
EE
ENDCHAR
STARTCHAR Theta
ENCODING 920
SWIDTH 600 0
DWIDTH 7 0
BBX 7 9 0 0
BITMAP
38
6C
46
DE
C6
C6
46
64
38
ENDCHAR
STARTCHAR Iota
ENCODING 921
SWIDTH 600 0
DWIDTH 7 0
BBX 5 9 1 0
BITMAP
F8
20
20
20
20
20
20
20
F8
ENDCHAR
STARTCHAR Kappa
ENCODING 922
SWIDTH 600 0
DWIDTH 7 0
BBX 7 9 0 0
BITMAP
E6
44
48
50
78
58
4C
46
EE
ENDCHAR
STARTCHAR Lambda
ENCODING 923
SWIDTH 600 0
DWIDTH 7 0
BBX 7 9 0 0
BITMAP
18
38
38
28
6C
4C
44
46
CE
ENDCHAR
STARTCHAR Mu
ENCODING 924
SWIDTH 600 0
DWIDTH 7 0
BBX 7 9 0 0
BITMAP
C6
E6
EE
EE
EE
EE
D6
D6
C6
ENDCHAR
STARTCHAR Nu
ENCODING 925
SWIDTH 600 0
DWIDTH 7 0
BBX 7 9 0 0
BITMAP
C6
66
66
76
56
5E
4E
46
E6
ENDCHAR
STARTCHAR Xi
ENCODING 926
SWIDTH 600 0
DWIDTH 7 0
BBX 7 9 0 0
BITMAP
7E
46
00
24
38
00
00
C2
FE
ENDCHAR
STARTCHAR Omicron
ENCODING 927
SWIDTH 600 0
DWIDTH 7 0
BBX 7 9 0 0
BITMAP
38
6C
46
C6
C6
C6
46
6C
38
ENDCHAR
STARTCHAR Pi
ENCODING 928
SWIDTH 600 0
DWIDTH 7 0
BBX 7 9 0 0
BITMAP
FE
44
44
44
44
44
44
44
EE
ENDCHAR
STARTCHAR Rho
ENCODING 929
SWIDTH 600 0
DWIDTH 7 0
BBX 7 9 0 0
BITMAP
FC
66
66
66
7C
60
60
60
F8
ENDCHAR
STARTCHAR Sigma
ENCODING 931
SWIDTH 600 0
DWIDTH 7 0
BBX 7 9 0 0
BITMAP
FE
62
30
38
18
10
20
42
FE
ENDCHAR
STARTCHAR Tau
ENCODING 932
SWIDTH 600 0
DWIDTH 7 0
BBX 7 9 0 0
BITMAP
FE
92
10
10
10
10
10
10
7C
ENDCHAR
STARTCHAR Upsilon
ENCODING 933
SWIDTH 600 0
DWIDTH 7 0
BBX 7 9 0 0
BITMAP
C2
64
28
38
38
10
10
10
7C
ENDCHAR
STARTCHAR Phi
ENCODING 934
SWIDTH 600 0
DWIDTH 7 0
BBX 7 9 0 0
BITMAP
38
7C
56
D6
D6
D6
7C
10
38
ENDCHAR
STARTCHAR Chi
ENCODING 935
SWIDTH 600 0
DWIDTH 7 0
BBX 7 9 0 0
BITMAP
EE
64
38
38
18
38
6C
4C
CE
ENDCHAR
STARTCHAR Psi
ENCODING 936
SWIDTH 600 0
DWIDTH 7 0
BBX 7 9 0 0
BITMAP
D2
56
54
54
7C
10
10
10
3C
ENDCHAR
STARTCHAR uni03A9
ENCODING 937
SWIDTH 600 0
DWIDTH 7 0
BBX 7 9 0 0
BITMAP
38
64
C6
C6
C6
46
44
2C
EE
ENDCHAR
STARTCHAR Iotadieresis
ENCODING 938
SWIDTH 600 0
DWIDTH 7 0
BBX 6 11 1 0
BITMAP
58
00
FC
20
20
20
20
20
20
20
FC
ENDCHAR
STARTCHAR Upsilondieresis
ENCODING 939
SWIDTH 600 0
DWIDTH 7 0
BBX 7 11 0 0
BITMAP
2C
00
C2
64
28
38
38
10
10
10
7C
ENDCHAR
STARTCHAR alphatonos
ENCODING 940
SWIDTH 600 0
DWIDTH 7 0
BBX 7 11 0 0
BITMAP
18
10
10
00
76
5E
DC
CC
CC
5C
76
ENDCHAR
STARTCHAR epsilontonos
ENCODING 941
SWIDTH 600 0
DWIDTH 7 0
BBX 6 11 1 0
BITMAP
10
10
20
00
78
C0
C0
78
C0
C0
FC
ENDCHAR
STARTCHAR etatonos
ENCODING 942
SWIDTH 600 0
DWIDTH 7 0
BBX 6 13 0 -2
BITMAP
18
10
10
00
DC
6C
64
64
64
64
64
04
04
ENDCHAR
STARTCHAR iotatonos
ENCODING 943
SWIDTH 600 0
DWIDTH 7 0
BBX 4 11 2 0
BITMAP
60
40
40
00
C0
C0
C0
C0
C0
C0
70
ENDCHAR
STARTCHAR upsilondiaeresistonos
ENCODING 944
SWIDTH 600 0
DWIDTH 7 0
BBX 5 11 1 0
BITMAP
30
20
A8
00
D8
C8
C8
C8
C8
C8
70
ENDCHAR
STARTCHAR alpha
ENCODING 945
SWIDTH 600 0
DWIDTH 7 0
BBX 7 7 0 0
BITMAP
76
5E
DC
CC
CC
5C
76
ENDCHAR
STARTCHAR beta
ENCODING 946
SWIDTH 600 0
DWIDTH 7 0
BBX 6 12 1 -2
BITMAP
70
D8
D8
D8
F0
D8
CC
CC
C8
F8
C0
C0
ENDCHAR
STARTCHAR gamma
ENCODING 947
SWIDTH 600 0
DWIDTH 7 0
BBX 7 9 0 -2
BITMAP
C2
64
64
38
38
18
18
18
18
ENDCHAR
STARTCHAR delta
ENCODING 948
SWIDTH 600 0
DWIDTH 7 0
BBX 7 10 0 0
BITMAP
3C
64
60
38
7C
66
C6
C6
64
38
ENDCHAR
STARTCHAR epsilon
ENCODING 949
SWIDTH 600 0
DWIDTH 7 0
BBX 6 7 1 0
BITMAP
78
C0
C0
78
C0
C4
FC
ENDCHAR
STARTCHAR zeta
ENCODING 950
SWIDTH 600 0
DWIDTH 7 0
BBX 7 12 0 -2
BITMAP
06
CE
78
20
60
60
60
60
70
3E
02
0C
ENDCHAR
STARTCHAR eta
ENCODING 951
SWIDTH 600 0
DWIDTH 7 0
BBX 6 9 0 -2
BITMAP
DC
6C
64
64
64
64
64
04
04
ENDCHAR
STARTCHAR theta
ENCODING 952
SWIDTH 600 0
DWIDTH 7 0
BBX 6 10 1 0
BITMAP
70
D8
88
8C
FC
8C
8C
C8
D8
70
ENDCHAR
STARTCHAR iota
ENCODING 953
SWIDTH 600 0
DWIDTH 7 0
BBX 4 7 2 0
BITMAP
C0
C0
C0
C0
C0
C0
70
ENDCHAR
STARTCHAR kappa
ENCODING 954
SWIDTH 600 0
DWIDTH 7 0
BBX 6 7 1 0
BITMAP
C8
D0
F0
E0
F0
D8
CC
ENDCHAR
STARTCHAR lambda
ENCODING 955
SWIDTH 600 0
DWIDTH 7 0
BBX 7 10 0 0
BITMAP
60
30
30
10
38
38
6C
4C
44
C6
ENDCHAR
STARTCHAR uni03bc
ENCODING 956
SWIDTH 600 0
DWIDTH 7 0
BBX 6 9 1 -2
BITMAP
88
88
88
88
88
D8
EC
80
80
ENDCHAR
STARTCHAR nu
ENCODING 957
SWIDTH 600 0
DWIDTH 7 0
BBX 7 7 0 0
BITMAP
C6
66
64
64
3C
38
38
ENDCHAR
STARTCHAR xi
ENCODING 958
SWIDTH 600 0
DWIDTH 7 0
BBX 7 12 0 -2
BITMAP
9C
F8
60
60
3C
20
40
40
60
3E
02
1C
ENDCHAR
STARTCHAR omicron
ENCODING 959
SWIDTH 600 0
DWIDTH 7 0
BBX 7 7 0 0
BITMAP
38
6C
C6
C6
C6
64
38
ENDCHAR
STARTCHAR pi
ENCODING 960
SWIDTH 600 0
DWIDTH 7 0
BBX 7 7 0 0
BITMAP
FE
EC
6C
6C
6C
6C
64
ENDCHAR
STARTCHAR rho
ENCODING 961
SWIDTH 600 0
DWIDTH 7 0
BBX 6 9 1 -2
BITMAP
78
CC
CC
CC
CC
D8
F0
C0
C0
ENDCHAR
STARTCHAR sigma1
ENCODING 962
SWIDTH 600 0
DWIDTH 7 0
BBX 7 9 0 -2
BITMAP
1C
60
40
C0
C0
60
3E
02
1C
ENDCHAR
STARTCHAR sigma
ENCODING 963
SWIDTH 600 0
DWIDTH 7 0
BBX 7 7 0 0
BITMAP
3E
4C
CC
CC
CC
6C
38
ENDCHAR
STARTCHAR tau
ENCODING 964
SWIDTH 600 0
DWIDTH 7 0
BBX 7 7 0 0
BITMAP
FE
90
10
10
10
18
18
ENDCHAR
STARTCHAR upsilon
ENCODING 965
SWIDTH 600 0
DWIDTH 7 0
BBX 5 7 1 0
BITMAP
D8
C8
C8
C8
C8
C8
70
ENDCHAR
STARTCHAR phi
ENCODING 966
SWIDTH 600 0
DWIDTH 7 0
BBX 7 9 0 -2
BITMAP
2C
56
D2
D2
D6
54
38
10
10
ENDCHAR
STARTCHAR chi
ENCODING 967
SWIDTH 600 0
DWIDTH 7 0
BBX 7 9 0 -2
BITMAP
C6
6C
38
38
18
38
6C
4C
C6
ENDCHAR
STARTCHAR psi
ENCODING 968
SWIDTH 600 0
DWIDTH 7 0
BBX 7 11 0 -2
BITMAP
10
10
D6
D6
D6
D6
D6
54
7C
10
10
ENDCHAR
STARTCHAR omega
ENCODING 969
SWIDTH 600 0
DWIDTH 7 0
BBX 7 7 0 0
BITMAP
64
56
D6
D2
D2
5E
6C
ENDCHAR
STARTCHAR iotadiaeresis
ENCODING 970
SWIDTH 600 0
DWIDTH 7 0
BBX 5 9 1 0
BITMAP
90
00
60
60
60
60
60
60
38
ENDCHAR
STARTCHAR upsilondiaeresis
ENCODING 971
SWIDTH 600 0
DWIDTH 7 0
BBX 5 9 1 0
BITMAP
50
00
D8
C8
C8
C8
C8
C8
70
ENDCHAR
STARTCHAR omicrontonos
ENCODING 972
SWIDTH 600 0
DWIDTH 7 0
BBX 7 11 0 0
BITMAP
18
10
10
00
38
6C
C6
C6
C6
64
38
ENDCHAR
STARTCHAR upsilontonos
ENCODING 973
SWIDTH 600 0
DWIDTH 7 0
BBX 5 11 1 0
BITMAP
30
20
20
00
D8
C8
C8
C8
C8
C8
70
ENDCHAR
STARTCHAR omegatonos
ENCODING 974
SWIDTH 600 0
DWIDTH 7 0
BBX 7 11 0 0
BITMAP
08
18
10
00
64
56
D6
D2
D2
5E
6C
ENDCHAR
STARTCHAR uni0400
ENCODING 1024
SWIDTH 600 0
DWIDTH 7 0
BBX 7 12 0 0
BITMAP
60
10
00
FE
66
60
68
78
68
60
62
FE
ENDCHAR
STARTCHAR uni0401
ENCODING 1025
SWIDTH 600 0
DWIDTH 7 0
BBX 7 11 0 0
BITMAP
68
00
FE
66
60
68
78
68
60
62
FE
ENDCHAR
STARTCHAR uni0402
ENCODING 1026
SWIDTH 600 0
DWIDTH 7 0
BBX 7 9 0 0
BITMAP
F8
A8
20
2C
36
26
26
26
6C
ENDCHAR
STARTCHAR uni0403
ENCODING 1027
SWIDTH 600 0
DWIDTH 7 0
BBX 7 12 0 0
BITMAP
18
20
00
FE
66
60
60
60
60
60
60
F0
ENDCHAR
STARTCHAR afii10053
ENCODING 1028
SWIDTH 600 0
DWIDTH 7 0
BBX 7 9 0 0
BITMAP
3E
62
60
44
FC
C4
60
60
3E
ENDCHAR
STARTCHAR uni0405
ENCODING 1029
SWIDTH 600 0
DWIDTH 7 0
BBX 6 9 1 0
BITMAP
78
C8
C8
E0
70
18
8C
88
F0
ENDCHAR
STARTCHAR uni0406
ENCODING 1030
SWIDTH 600 0
DWIDTH 7 0
BBX 5 9 1 0
BITMAP
F8
20
20
20
20
20
20
20
F8
ENDCHAR
STARTCHAR uni0407
ENCODING 1031
SWIDTH 600 0
DWIDTH 7 0
BBX 5 11 1 0
BITMAP
58
00
F8
20
20
20
20
20
20
20
F8
ENDCHAR
STARTCHAR uni0408
ENCODING 1032
SWIDTH 600 0
DWIDTH 7 0
BBX 6 9 1 0
BITMAP
7C
10
10
10
10
10
90
90
F0
ENDCHAR
STARTCHAR uni0409
ENCODING 1033
SWIDTH 600 0
DWIDTH 7 0
BBX 7 9 0 0
BITMAP
F0
50
50
5C
56
52
52
56
DC
ENDCHAR
STARTCHAR uni040A
ENCODING 1034
SWIDTH 600 0
DWIDTH 7 0
BBX 7 9 0 0
BITMAP
D8
50
50
7C
56
52
52
56
DC
ENDCHAR
STARTCHAR uni040B
ENCODING 1035
SWIDTH 600 0
DWIDTH 7 0
BBX 7 9 0 0
BITMAP
F8
A8
20
2C
34
24
24
24
76
ENDCHAR
STARTCHAR uni040C
ENCODING 1036
SWIDTH 600 0
DWIDTH 7 0
BBX 7 12 0 0
BITMAP
0C
10
00
E6
6C
68
78
78
78
6C
64
E6
ENDCHAR
STARTCHAR uni040D
ENCODING 1037
SWIDTH 600 0
DWIDTH 7 0
BBX 7 12 0 0
BITMAP
30
18
00
E6
4C
4C
54
54
54
64
64
EE
ENDCHAR
STARTCHAR uni040E
ENCODING 1038
SWIDTH 600 0
DWIDTH 7 0
BBX 7 12 0 0
BITMAP
2C
38
00
E6
66
64
2C
38
18
10
70
60
ENDCHAR
STARTCHAR uni040F
ENCODING 1039
SWIDTH 600 0
DWIDTH 7 0
BBX 7 11 0 -2
BITMAP
EE
44
44
44
44
44
44
44
FE
10
10
ENDCHAR
STARTCHAR uni0410
ENCODING 1040
SWIDTH 600 0
DWIDTH 7 0
BBX 7 9 0 0
BITMAP
18
38
28
28
4C
7C
44
46
CE
ENDCHAR
STARTCHAR afii10018
ENCODING 1041
SWIDTH 600 0
DWIDTH 7 0
BBX 7 9 0 0
BITMAP
FC
64
60
7C
66
66
66
66
FC
ENDCHAR
STARTCHAR uni0412
ENCODING 1042
SWIDTH 600 0
DWIDTH 7 0
BBX 7 9 0 0
BITMAP
FC
4C
44
4C
78
4C
46
46
FC
ENDCHAR
STARTCHAR uni0413
ENCODING 1043
SWIDTH 600 0
DWIDTH 7 0
BBX 7 9 0 0
BITMAP
FE
66
60
60
60
60
60
60
F0
ENDCHAR
STARTCHAR uni0414
ENCODING 1044
SWIDTH 600 0
DWIDTH 7 0
BBX 7 11 0 -2
BITMAP
3E
34
34
24
24
24
64
44
FE
86
86
ENDCHAR
STARTCHAR uni0415
ENCODING 1045
SWIDTH 600 0
DWIDTH 7 0
BBX 7 9 0 0
BITMAP
FE
66
60
68
78
68
60
62
FE
ENDCHAR
STARTCHAR afii10024
ENCODING 1046
SWIDTH 600 0
DWIDTH 7 0
BBX 7 9 0 0
BITMAP
DA
54
54
38
38
74
54
56
DA
ENDCHAR
STARTCHAR uni0417
ENCODING 1047
SWIDTH 600 0
DWIDTH 7 0
BBX 7 9 0 0
BITMAP
7C
44
0C
30
0C
06
06
84
F8
ENDCHAR
STARTCHAR uni0418
ENCODING 1048
SWIDTH 600 0
DWIDTH 7 0
BBX 7 9 0 0
BITMAP
E6
4C
4C
54
54
54
64
64
EE
ENDCHAR
STARTCHAR uni0419
ENCODING 1049
SWIDTH 600 0
DWIDTH 7 0
BBX 7 12 0 0
BITMAP
2C
38
00
E6
4C
4C
54
54
54
64
64
EE
ENDCHAR
STARTCHAR uni041A
ENCODING 1050
SWIDTH 600 0
DWIDTH 7 0
BBX 7 9 0 0
BITMAP
E6
6C
68
78
78
78
6C
64
E6
ENDCHAR
STARTCHAR afii10029
ENCODING 1051
SWIDTH 600 0
DWIDTH 7 0
BBX 7 9 0 0
BITMAP
7E
24
24
24
24
24
64
64
CE
ENDCHAR
STARTCHAR uni041C
ENCODING 1052
SWIDTH 600 0
DWIDTH 7 0
BBX 7 9 0 0
BITMAP
C6
E6
EE
EE
EE
EE
D6
D6
C6
ENDCHAR
STARTCHAR uni041D
ENCODING 1053
SWIDTH 600 0
DWIDTH 7 0
BBX 7 9 0 0
BITMAP
EE
44
44
44
7C
44
44
44
EE
ENDCHAR
STARTCHAR uni041E
ENCODING 1054
SWIDTH 600 0
DWIDTH 7 0
BBX 7 9 0 0
BITMAP
38
6C
46
C6
C6
C6
46
6C
38
ENDCHAR
STARTCHAR uni041F
ENCODING 1055
SWIDTH 600 0
DWIDTH 7 0
BBX 7 9 0 0
BITMAP
FE
44
44
44
44
44
44
44
EE
ENDCHAR
STARTCHAR uni0420
ENCODING 1056
SWIDTH 600 0
DWIDTH 7 0
BBX 7 9 0 0
BITMAP
FC
66
66
66
7C
60
60
60
F8
ENDCHAR
STARTCHAR uni0421
ENCODING 1057
SWIDTH 600 0
DWIDTH 7 0
BBX 7 9 0 0
BITMAP
3E
62
62
C0
C0
C0
60
62
3E
ENDCHAR
STARTCHAR uni0422
ENCODING 1058
SWIDTH 600 0
DWIDTH 7 0
BBX 7 9 0 0
BITMAP
FE
92
10
10
10
10
10
10
7C
ENDCHAR
STARTCHAR uni0423
ENCODING 1059
SWIDTH 600 0
DWIDTH 7 0
BBX 7 9 0 0
BITMAP
E6
66
64
2C
38
18
10
70
60
ENDCHAR
STARTCHAR uni0424
ENCODING 1060
SWIDTH 600 0
DWIDTH 7 0
BBX 7 9 0 0
BITMAP
38
7C
56
D6
D6
D6
7C
10
38
ENDCHAR
STARTCHAR uni0425
ENCODING 1061
SWIDTH 600 0
DWIDTH 7 0
BBX 7 9 0 0
BITMAP
EE
64
38
38
18
38
6C
4C
CE
ENDCHAR
STARTCHAR uni0426
ENCODING 1062
SWIDTH 600 0
DWIDTH 7 0
BBX 7 11 0 -2
BITMAP
EE
44
44
44
44
44
44
44
FE
02
02
ENDCHAR
STARTCHAR afii10041
ENCODING 1063
SWIDTH 602 0
DWIDTH 7 0
BBX 7 9 0 0
BITMAP
EE
44
44
44
44
7C
04
04
0E
ENDCHAR
STARTCHAR uni0428
ENCODING 1064
SWIDTH 600 0
DWIDTH 7 0
BBX 7 9 0 0
BITMAP
D6
56
56
56
56
56
56
56
FE
ENDCHAR
STARTCHAR uni0429
ENCODING 1065
SWIDTH 600 0
DWIDTH 7 0
BBX 7 11 0 -2
BITMAP
D6
56
56
56
56
56
56
56
FE
02
02
ENDCHAR
STARTCHAR afii10044
ENCODING 1066
SWIDTH 600 0
DWIDTH 7 0
BBX 7 9 0 0
BITMAP
F0
30
30
3C
36
36
36
36
7C
ENDCHAR
STARTCHAR uni042B
ENCODING 1067
SWIDTH 600 0
DWIDTH 7 0
BBX 7 9 0 0
BITMAP
C6
46
46
76
56
5E
5E
56
F6
ENDCHAR
STARTCHAR afii10046
ENCODING 1068
SWIDTH 602 0
DWIDTH 7 0
BBX 7 9 0 0
BITMAP
E0
60
60
7C
66
66
66
66
FC
ENDCHAR
STARTCHAR uni042D
ENCODING 1069
SWIDTH 600 0
DWIDTH 7 0
BBX 7 9 0 0
BITMAP
F8
CC
06
26
3E
26
06
0C
F8
ENDCHAR
STARTCHAR afii10048
ENCODING 1070
SWIDTH 600 0
DWIDTH 7 0
BBX 7 9 0 0
BITMAP
CC
56
52
72
52
52
52
56
CC
ENDCHAR
STARTCHAR afii10049
ENCODING 1071
SWIDTH 600 0
DWIDTH 7 0
BBX 7 9 0 0
BITMAP
3E
64
64
64
3C
34
64
64
EE
ENDCHAR
STARTCHAR uni0430
ENCODING 1072
SWIDTH 600 0
DWIDTH 7 0
BBX 7 7 0 0
BITMAP
7C
4C
04
3C
64
CC
76
ENDCHAR
STARTCHAR afii10066
ENCODING 1073
SWIDTH 600 0
DWIDTH 7 0
BBX 7 11 0 0
BITMAP
04
3C
60
40
DC
E4
C6
C6
46
64
38
ENDCHAR
STARTCHAR uni0432
ENCODING 1074
SWIDTH 600 0
DWIDTH 7 0
BBX 7 7 0 0
BITMAP
FC
64
6C
78
66
66
FC
ENDCHAR
STARTCHAR uni0433
ENCODING 1075
SWIDTH 600 0
DWIDTH 7 0
BBX 7 7 0 0
BITMAP
FE
62
60
60
60
60
F0
ENDCHAR
STARTCHAR uni0434
ENCODING 1076
SWIDTH 600 0
DWIDTH 7 0
BBX 7 9 0 -2
BITMAP
7E
24
24
24
64
44
FE
82
82
ENDCHAR
STARTCHAR uni0435
ENCODING 1077
SWIDTH 600 0
DWIDTH 7 0
BBX 7 7 0 0
BITMAP
38
64
C6
FE
C0
62
3E
ENDCHAR
STARTCHAR afii10072
ENCODING 1078
SWIDTH 600 0
DWIDTH 7 0
BBX 7 7 0 0
BITMAP
FA
54
74
38
74
54
D6
ENDCHAR
STARTCHAR uni0437
ENCODING 1079
SWIDTH 600 0
DWIDTH 7 0
BBX 5 7 1 0
BITMAP
F0
98
18
60
18
98
F0
ENDCHAR
STARTCHAR _56
ENCODING 1080
SWIDTH 600 0
DWIDTH 7 0
BBX 7 7 0 0
BITMAP
EE
6C
6C
74
74
64
EE
ENDCHAR
STARTCHAR uni0439
ENCODING 1081
SWIDTH 600 0
DWIDTH 7 0
BBX 7 10 0 0
BITMAP
2C
38
00
EE
6C
6C
74
74
64
EE
ENDCHAR
STARTCHAR uni043A
ENCODING 1082
SWIDTH 600 0
DWIDTH 7 0
BBX 7 7 0 0
BITMAP
E6
68
78
70
68
6C
EE
ENDCHAR
STARTCHAR uni043B
ENCODING 1083
SWIDTH 600 0
DWIDTH 7 0
BBX 7 7 0 0
BITMAP
7E
24
24
24
64
64
CE
ENDCHAR
STARTCHAR uni043C
ENCODING 1084
SWIDTH 600 0
DWIDTH 7 0
BBX 7 7 0 0
BITMAP
E6
66
6E
6E
56
56
C6
ENDCHAR
STARTCHAR uni043D
ENCODING 1085
SWIDTH 600 0
DWIDTH 7 0
BBX 7 7 0 0
BITMAP
EE
64
64
7C
64
64
EE
ENDCHAR
STARTCHAR uni043E
ENCODING 1086
SWIDTH 600 0
DWIDTH 7 0
BBX 7 7 0 0
BITMAP
38
6C
C6
C6
C6
6C
38
ENDCHAR
STARTCHAR uni043F
ENCODING 1087
SWIDTH 600 0
DWIDTH 7 0
BBX 7 7 0 0
BITMAP
FE
64
64
64
64
64
EE
ENDCHAR
STARTCHAR uni0440
ENCODING 1088
SWIDTH 600 0
DWIDTH 7 0
BBX 7 9 0 -2
BITMAP
DC
66
46
46
46
44
7C
40
E0
ENDCHAR
STARTCHAR uni0441
ENCODING 1089
SWIDTH 600 0
DWIDTH 7 0
BBX 7 7 0 0
BITMAP
3E
62
C2
C0
C0
62
3E
ENDCHAR
STARTCHAR uni0442
ENCODING 1090
SWIDTH 600 0
DWIDTH 7 0
BBX 7 7 0 0
BITMAP
FE
D2
10
10
10
10
7C
ENDCHAR
STARTCHAR afii10085
ENCODING 1091
SWIDTH 600 0
DWIDTH 7 0
BBX 7 9 0 -2
BITMAP
EE
64
64
38
38
18
10
F0
E0
ENDCHAR
STARTCHAR afii10086
ENCODING 1092
SWIDTH 600 0
DWIDTH 7 0
BBX 7 13 0 -2
BITMAP
38
10
10
10
3C
54
D6
D6
D6
54
3C
10
38
ENDCHAR
STARTCHAR uni0445
ENCODING 1093
SWIDTH 600 0
DWIDTH 7 0
BBX 7 7 0 0
BITMAP
EE
64
38
18
38
6C
EE
ENDCHAR
STARTCHAR uni0446
ENCODING 1094
SWIDTH 600 0
DWIDTH 7 0
BBX 7 9 0 -2
BITMAP
EE
64
64
64
64
64
FE
02
02
ENDCHAR
STARTCHAR uni0447
ENCODING 1095
SWIDTH 602 0
DWIDTH 7 0
BBX 7 7 0 0
BITMAP
EE
44
44
64
7C
04
0E
ENDCHAR
STARTCHAR uni0448
ENCODING 1096
SWIDTH 600 0
DWIDTH 7 0
BBX 7 7 0 0
BITMAP
D6
56
56
56
56
56
FE
ENDCHAR
STARTCHAR uni0449
ENCODING 1097
SWIDTH 600 0
DWIDTH 7 0
BBX 7 9 0 -2
BITMAP
D6
56
56
56
56
56
FE
02
02
ENDCHAR
STARTCHAR afii10092
ENCODING 1098
SWIDTH 600 0
DWIDTH 7 0
BBX 7 7 0 0
BITMAP
F0
30
3C
36
36
36
7C
ENDCHAR
STARTCHAR uni044B
ENCODING 1099
SWIDTH 600 0
DWIDTH 7 0
BBX 7 7 0 0
BITMAP
C6
46
76
5E
5E
56
F6
ENDCHAR
STARTCHAR uni044C
ENCODING 1100
SWIDTH 600 0
DWIDTH 7 0
BBX 7 7 0 0
BITMAP
E0
60
60
7C
66
66
FC
ENDCHAR
STARTCHAR uni044D
ENCODING 1101
SWIDTH 600 0
DWIDTH 7 0
BBX 6 7 1 0
BITMAP
F0
98
0C
7C
0C
18
F0
ENDCHAR
STARTCHAR uni044E
ENCODING 1102
SWIDTH 600 0
DWIDTH 7 0
BBX 7 7 0 0
BITMAP
CC
56
52
72
52
56
CC
ENDCHAR
STARTCHAR afii10097
ENCODING 1103
SWIDTH 600 0
DWIDTH 7 0
BBX 7 7 0 0
BITMAP
3E
64
64
3C
34
64
EE
ENDCHAR
STARTCHAR uni0450
ENCODING 1104
SWIDTH 600 0
DWIDTH 7 0
BBX 7 10 0 0
BITMAP
30
18
00
38
64
C6
FE
C0
62
3E
ENDCHAR
STARTCHAR uni0451
ENCODING 1105
SWIDTH 600 0
DWIDTH 7 0
BBX 7 9 0 0
BITMAP
24
00
38
64
C6
FE
C0
62
3E
ENDCHAR
STARTCHAR afii10099
ENCODING 1106
SWIDTH 600 0
DWIDTH 7 0
BBX 6 12 1 -2
BITMAP
C0
C0
F0
C0
F8
EC
CC
CC
CC
EC
0C
18
ENDCHAR
STARTCHAR uni0453
ENCODING 1107
SWIDTH 600 0
DWIDTH 7 0
BBX 7 10 0 0
BITMAP
18
30
00
FE
66
60
60
60
60
F0
ENDCHAR
STARTCHAR uni0454
ENCODING 1108
SWIDTH 600 0
DWIDTH 7 0
BBX 7 7 0 0
BITMAP
3C
64
C0
F8
C0
60
3E
ENDCHAR
STARTCHAR uni0455
ENCODING 1109
SWIDTH 600 0
DWIDTH 7 0
BBX 5 7 1 0
BITMAP
78
C8
C0
78
18
88
F8
ENDCHAR
STARTCHAR uni0456
ENCODING 1110
SWIDTH 600 0
DWIDTH 7 0
BBX 6 10 1 0
BITMAP
30
30
00
F0
30
30
30
30
30
FC
ENDCHAR
STARTCHAR uni0457
ENCODING 1111
SWIDTH 600 0
DWIDTH 7 0
BBX 6 9 1 0
BITMAP
58
00
F0
30
30
30
30
30
FC
ENDCHAR
STARTCHAR uni0458
ENCODING 1112
SWIDTH 600 0
DWIDTH 7 0
BBX 5 13 1 -2
BITMAP
18
18
00
00
F8
18
18
18
18
18
98
90
F0
ENDCHAR
STARTCHAR uni0459
ENCODING 1113
SWIDTH 600 0
DWIDTH 7 0
BBX 7 7 0 0
BITMAP
70
50
5C
56
52
56
DC
ENDCHAR
STARTCHAR uni045A
ENCODING 1114
SWIDTH 600 0
DWIDTH 7 0
BBX 7 7 0 0
BITMAP
D8
50
50
7C
52
56
DC
ENDCHAR
STARTCHAR afii10108
ENCODING 1115
SWIDTH 600 0
DWIDTH 7 0
BBX 7 10 0 0
BITMAP
E0
60
F8
60
7C
64
64
64
64
EE
ENDCHAR
STARTCHAR uni045C
ENCODING 1116
SWIDTH 600 0
DWIDTH 7 0
BBX 7 10 0 0
BITMAP
0C
18
00
E6
6C
68
70
78
6C
E6
ENDCHAR
STARTCHAR uni045D
ENCODING 1117
SWIDTH 600 0
DWIDTH 7 0
BBX 7 10 0 0
BITMAP
30
18
00
EE
6C
6C
74
74
64
EE
ENDCHAR
STARTCHAR uni045E
ENCODING 1118
SWIDTH 600 0
DWIDTH 7 0
BBX 7 13 0 -2
BITMAP
24
18
00
00
EE
64
64
38
38
18
10
F0
E0
ENDCHAR
STARTCHAR uni045F
ENCODING 1119
SWIDTH 600 0
DWIDTH 7 0
BBX 7 9 0 -2
BITMAP
EE
64
64
64
64
64
FE
10
10
ENDCHAR
STARTCHAR uni0490
ENCODING 1168
SWIDTH 600 0
DWIDTH 7 0
BBX 7 11 0 0
BITMAP
06
06
FE
60
60
60
60
60
60
60
F0
ENDCHAR
STARTCHAR uni0491
ENCODING 1169
SWIDTH 600 0
DWIDTH 7 0
BBX 7 8 0 0
BITMAP
02
FE
60
60
60
60
60
F0
ENDCHAR
STARTCHAR Wgrave
ENCODING 7808
SWIDTH 600 0
DWIDTH 7 0
BBX 7 12 0 0
BITMAP
30
18
00
C6
D2
5A
5C
5C
6C
6C
6C
6C
ENDCHAR
STARTCHAR wgrave
ENCODING 7809
SWIDTH 600 0
DWIDTH 7 0
BBX 7 10 0 0
BITMAP
30
18
00
C6
5A
5C
5C
6C
6C
6C
ENDCHAR
STARTCHAR Wacute
ENCODING 7810
SWIDTH 600 0
DWIDTH 7 0
BBX 7 12 0 0
BITMAP
0C
10
00
C6
D2
5A
5C
5C
6C
6C
6C
6C
ENDCHAR
STARTCHAR wacute
ENCODING 7811
SWIDTH 600 0
DWIDTH 7 0
BBX 7 10 0 0
BITMAP
0C
18
00
C6
5A
5C
5C
6C
6C
6C
ENDCHAR
STARTCHAR Wdieresis
ENCODING 7812
SWIDTH 600 0
DWIDTH 7 0
BBX 7 11 0 0
BITMAP
24
00
C6
D2
5A
5C
5C
6C
6C
6C
6C
ENDCHAR
STARTCHAR wdieresis
ENCODING 7813
SWIDTH 600 0
DWIDTH 7 0
BBX 7 9 0 0
BITMAP
2C
00
C6
5A
5C
5C
6C
6C
6C
ENDCHAR
STARTCHAR Ygrave
ENCODING 7922
SWIDTH 600 0
DWIDTH 7 0
BBX 7 12 0 0
BITMAP
30
18
00
E6
64
64
38
18
18
18
18
7C
ENDCHAR
STARTCHAR ygrave
ENCODING 7923
SWIDTH 600 0
DWIDTH 7 0
BBX 7 12 0 -2
BITMAP
70
10
00
E6
64
64
38
38
18
10
30
78
ENDCHAR
STARTCHAR endash
ENCODING 8211
SWIDTH 600 0
DWIDTH 7 0
BBX 6 1 1 4
BITMAP
FC
ENDCHAR
STARTCHAR emdash
ENCODING 8212
SWIDTH 600 0
DWIDTH 7 0
BBX 7 1 0 4
BITMAP
FE
ENDCHAR
STARTCHAR afii00208
ENCODING 8213
SWIDTH 600 0
DWIDTH 7 0
BBX 7 1 0 4
BITMAP
FE
ENDCHAR
STARTCHAR underscoredbl
ENCODING 8215
SWIDTH 600 0
DWIDTH 7 0
BBX 7 3 0 -3
BITMAP
FE
00
FE
ENDCHAR
STARTCHAR quoteleft
ENCODING 8216
SWIDTH 600 0
DWIDTH 7 0
BBX 2 4 3 6
BITMAP
C0
80
C0
C0
ENDCHAR
STARTCHAR quoteright
ENCODING 8217
SWIDTH 600 0
DWIDTH 7 0
BBX 2 4 3 6
BITMAP
C0
C0
C0
80
ENDCHAR
STARTCHAR quotesinglbase
ENCODING 8218
SWIDTH 600 0
DWIDTH 7 0
BBX 2 4 3 -2
BITMAP
C0
C0
C0
80
ENDCHAR
STARTCHAR quotereversed
ENCODING 8219
SWIDTH 600 0
DWIDTH 7 0
BBX 2 4 3 6
BITMAP
C0
C0
80
C0
ENDCHAR
STARTCHAR quotedblleft
ENCODING 8220
SWIDTH 600 0
DWIDTH 7 0
BBX 5 4 1 6
BITMAP
C8
98
D8
D8
ENDCHAR
STARTCHAR quotedblright
ENCODING 8221
SWIDTH 600 0
DWIDTH 7 0
BBX 5 4 1 6
BITMAP
D8
D8
48
D8
ENDCHAR
STARTCHAR quotedblbase
ENCODING 8222
SWIDTH 600 0
DWIDTH 7 0
BBX 5 4 1 -2
BITMAP
D8
D8
48
D8
ENDCHAR
STARTCHAR dagger
ENCODING 8224
SWIDTH 600 0
DWIDTH 7 0
BBX 5 11 1 -2
BITMAP
20
20
20
F8
20
20
20
20
20
20
20
ENDCHAR
STARTCHAR daggerdbl
ENCODING 8225
SWIDTH 600 0
DWIDTH 7 0
BBX 5 11 1 -2
BITMAP
20
20
20
F8
20
20
20
F8
20
20
20
ENDCHAR
STARTCHAR bullet
ENCODING 8226
SWIDTH 600 0
DWIDTH 7 0
BBX 5 5 1 2
BITMAP
70
F8
F8
F8
70
ENDCHAR
STARTCHAR ellipsis
ENCODING 8230
SWIDTH 600 0
DWIDTH 7 0
BBX 7 1 0 0
BITMAP
D6
ENDCHAR
STARTCHAR perthousand
ENCODING 8240
SWIDTH 600 0
DWIDTH 7 0
BBX 7 9 0 0
BITMAP
C8
A8
B0
D0
3E
3A
5A
5A
9E
ENDCHAR
STARTCHAR minute
ENCODING 8242
SWIDTH 600 0
DWIDTH 7 0
BBX 3 3 2 7
BITMAP
60
40
C0
ENDCHAR
STARTCHAR second
ENCODING 8243
SWIDTH 600 0
DWIDTH 7 0
BBX 5 4 1 6
BITMAP
68
58
D0
90
ENDCHAR
STARTCHAR guilsinglleft
ENCODING 8249
SWIDTH 600 0
DWIDTH 7 0
BBX 4 5 2 1
BITMAP
30
60
C0
60
20
ENDCHAR
STARTCHAR guilsinglright
ENCODING 8250
SWIDTH 600 0
DWIDTH 7 0
BBX 4 5 2 1
BITMAP
80
C0
70
40
80
ENDCHAR
STARTCHAR exclamdbl
ENCODING 8252
SWIDTH 600 0
DWIDTH 7 0
BBX 5 9 1 0
BITMAP
D8
D8
D8
C8
C8
88
00
00
D8
ENDCHAR
STARTCHAR uni203E
ENCODING 8254
SWIDTH 600 0
DWIDTH 7 0
BBX 7 1 0 10
BITMAP
FE
ENDCHAR
STARTCHAR fraction
ENCODING 8260
SWIDTH 600 0
DWIDTH 7 0
BBX 6 9 1 0
BITMAP
0C
08
10
10
20
20
40
80
80
ENDCHAR
STARTCHAR uni207f
ENCODING 8319
SWIDTH 600 0
DWIDTH 7 0
BBX 5 5 1 4
BITMAP
F0
D8
D8
D8
D8
ENDCHAR
STARTCHAR franc
ENCODING 8355
SWIDTH 600 0
DWIDTH 7 0
BBX 7 9 0 0
BITMAP
FC
40
40
40
7A
5C
58
58
D8
ENDCHAR
STARTCHAR lira
ENCODING 8356
SWIDTH 600 0
DWIDTH 7 0
BBX 5 9 1 0
BITMAP
38
60
F0
60
F0
60
60
40
F8
ENDCHAR
STARTCHAR peseta
ENCODING 8359
SWIDTH 600 0
DWIDTH 7 0
BBX 7 9 0 0
BITMAP
F8
C8
D8
F0
C8
DE
C8
C8
CE
ENDCHAR
STARTCHAR Euro
ENCODING 8364
SWIDTH 600 0
DWIDTH 7 0
BBX 7 9 0 0
BITMAP
1E
60
FC
60
60
F8
60
32
1E
ENDCHAR
STARTCHAR uni2105
ENCODING 8453
SWIDTH 600 0
DWIDTH 7 0
BBX 7 9 0 0
BITMAP
76
C4
D8
68
10
2E
3A
56
9C
ENDCHAR
STARTCHAR afii61289
ENCODING 8467
SWIDTH 600 0
DWIDTH 7 0
BBX 7 10 0 0
BITMAP
0E
12
16
34
3C
38
E4
24
68
38
ENDCHAR
STARTCHAR afii61352
ENCODING 8470
SWIDTH 600 0
DWIDTH 7 0
BBX 7 9 0 0
BITMAP
90
D0
D4
DA
BA
BA
BE
B0
9E
ENDCHAR
STARTCHAR trademark
ENCODING 8482
SWIDTH 600 0
DWIDTH 7 0
BBX 7 4 0 5
BITMAP
FE
5E
5E
5A
ENDCHAR
STARTCHAR Omega
ENCODING 8486
SWIDTH 600 0
DWIDTH 7 0
BBX 7 10 0 0
BITMAP
10
7C
46
C6
C6
C6
46
44
2C
EE
ENDCHAR
STARTCHAR estimated
ENCODING 8494
SWIDTH 600 0
DWIDTH 7 0
BBX 7 6 0 0
BITMAP
3C
42
82
FC
80
7C
ENDCHAR
STARTCHAR oneeighth
ENCODING 8539
SWIDTH 600 0
DWIDTH 7 0
BBX 7 9 0 0
BITMAP
CC
48
50
50
1E
3A
2C
52
DC
ENDCHAR
STARTCHAR threeeighths
ENCODING 8540
SWIDTH 600 0
DWIDTH 7 0
BBX 7 9 0 0
BITMAP
E4
48
28
F0
1E
3A
2C
52
5E
ENDCHAR
STARTCHAR fiveeighths
ENCODING 8541
SWIDTH 600 0
DWIDTH 7 0
BBX 7 9 0 0
BITMAP
E4
E8
28
F0
1E
3A
2C
52
5E
ENDCHAR
STARTCHAR seveneighths
ENCODING 8542
SWIDTH 600 0
DWIDTH 7 0
BBX 7 9 0 0
BITMAP
EC
28
50
50
AE
3A
4C
52
9E
ENDCHAR
STARTCHAR arrowleft
ENCODING 8592
SWIDTH 600 0
DWIDTH 7 0
BBX 7 4 0 2
BITMAP
20
FE
40
20
ENDCHAR
STARTCHAR arrowup
ENCODING 8593
SWIDTH 600 0
DWIDTH 7 0
BBX 3 11 2 -2
BITMAP
40
E0
40
40
40
40
40
40
40
40
40
ENDCHAR
STARTCHAR arrowright
ENCODING 8594
SWIDTH 600 0
DWIDTH 7 0
BBX 7 4 0 2
BITMAP
08
FE
04
08
ENDCHAR
STARTCHAR arrowdown
ENCODING 8595
SWIDTH 600 0
DWIDTH 7 0
BBX 3 11 2 -2
BITMAP
40
40
40
40
40
40
40
40
E0
60
40
ENDCHAR
STARTCHAR arrowboth
ENCODING 8596
SWIDTH 600 0
DWIDTH 7 0
BBX 7 4 0 2
BITMAP
28
FE
44
28
ENDCHAR
STARTCHAR arrowupdn
ENCODING 8597
SWIDTH 600 0
DWIDTH 7 0
BBX 3 11 2 -2
BITMAP
40
E0
40
40
40
40
40
40
E0
40
40
ENDCHAR
STARTCHAR arrowupdnbse
ENCODING 8616
SWIDTH 600 0
DWIDTH 7 0
BBX 3 13 2 -3
BITMAP
40
E0
E0
40
40
40
40
40
E0
60
40
E0
E0
ENDCHAR
STARTCHAR partialdiff
ENCODING 8706
SWIDTH 600 0
DWIDTH 7 0
BBX 5 10 1 0
BITMAP
70
98
08
38
78
C8
C8
C8
D0
E0
ENDCHAR
STARTCHAR Delta
ENCODING 8710
SWIDTH 600 0
DWIDTH 7 0
BBX 7 9 0 0
BITMAP
38
38
28
2C
4C
44
46
86
FE
ENDCHAR
STARTCHAR product
ENCODING 8719
SWIDTH 600 0
DWIDTH 7 0
BBX 7 11 0 -2
BITMAP
FE
44
44
44
44
44
44
44
44
44
EE
ENDCHAR
STARTCHAR summation
ENCODING 8721
SWIDTH 600 0
DWIDTH 7 0
BBX 7 11 0 -2
BITMAP
FE
62
30
30
18
18
10
20
62
C2
FE
ENDCHAR
STARTCHAR minus
ENCODING 8722
SWIDTH 600 0
DWIDTH 7 0
BBX 6 2 1 3
BITMAP
FC
FC
ENDCHAR
STARTCHAR fraction.001
ENCODING 8725
SWIDTH 600 0
DWIDTH 7 0
BBX 6 10 1 0
BITMAP
04
08
08
10
10
20
40
40
80
80
ENDCHAR
STARTCHAR uni2219
ENCODING 8729
SWIDTH 602 0
DWIDTH 7 0
BBX 5 5 1 2
BITMAP
20
78
F8
F8
70
ENDCHAR
STARTCHAR radical
ENCODING 8730
SWIDTH 600 0
DWIDTH 7 0
BBX 7 12 0 -2
BITMAP
02
02
04
04
04
04
48
E8
28
28
30
10
ENDCHAR
STARTCHAR infinity
ENCODING 8734
SWIDTH 600 0
DWIDTH 7 0
BBX 7 5 0 1
BITMAP
6C
FA
92
9A
6E
ENDCHAR
STARTCHAR orthogonal
ENCODING 8735
SWIDTH 600 0
DWIDTH 7 0
BBX 6 7 1 0
BITMAP
80
80
80
80
80
80
FC
ENDCHAR
STARTCHAR intersection
ENCODING 8745
SWIDTH 600 0
DWIDTH 7 0
BBX 7 9 0 0
BITMAP
3C
44
46
C2
C2
C2
C2
C2
C2
ENDCHAR
STARTCHAR integral
ENCODING 8747
SWIDTH 600 0
DWIDTH 7 0
BBX 5 14 1 -2
BITMAP
38
38
20
60
60
60
60
60
60
60
20
20
E0
C0
ENDCHAR
STARTCHAR approxequal
ENCODING 8776
SWIDTH 600 0
DWIDTH 7 0
BBX 6 6 1 1
BITMAP
44
F8
98
44
F8
98
ENDCHAR
STARTCHAR notequal
ENCODING 8800
SWIDTH 600 0
DWIDTH 7 0
BBX 6 6 1 1
BITMAP
18
FC
20
20
FC
40
ENDCHAR
STARTCHAR equivalence
ENCODING 8801
SWIDTH 602 0
DWIDTH 7 0
BBX 7 6 0 1
BITMAP
FE
00
FE
FE
00
FE
ENDCHAR
STARTCHAR lessequal
ENCODING 8804
SWIDTH 600 0
DWIDTH 7 0
BBX 6 8 1 0
BITMAP
0C
38
E0
70
18
04
00
FC
ENDCHAR
STARTCHAR greaterequal
ENCODING 8805
SWIDTH 600 0
DWIDTH 7 0
BBX 6 8 1 0
BITMAP
80
60
3C
30
C0
80
00
FC
ENDCHAR
STARTCHAR house
ENCODING 8962
SWIDTH 600 0
DWIDTH 7 0
BBX 5 7 1 0
BITMAP
30
50
88
88
88
88
F8
ENDCHAR
STARTCHAR revlogicalnot
ENCODING 8976
SWIDTH 602 0
DWIDTH 7 0
BBX 7 4 0 1
BITMAP
FE
FE
C0
C0
ENDCHAR
STARTCHAR integraltp
ENCODING 8992
SWIDTH 600 0
DWIDTH 7 0
BBX 3 13 3 -3
BITMAP
60
A0
80
80
80
80
80
80
80
80
80
80
80
ENDCHAR
STARTCHAR integralbt
ENCODING 8993
SWIDTH 600 0
DWIDTH 7 0
BBX 3 13 1 -3
BITMAP
20
20
20
20
20
20
20
20
20
20
20
A0
C0
ENDCHAR
STARTCHAR SF100000
ENCODING 9472
SWIDTH 600 0
DWIDTH 7 0
BBX 7 1 0 3
BITMAP
FE
ENDCHAR
STARTCHAR SF110000
ENCODING 9474
SWIDTH 600 0
DWIDTH 7 0
BBX 1 13 3 -3
BITMAP
80
80
80
80
80
80
80
80
80
80
80
80
80
ENDCHAR
STARTCHAR SF010000
ENCODING 9484
SWIDTH 600 0
DWIDTH 7 0
BBX 4 7 3 -3
BITMAP
F0
80
80
80
80
80
80
ENDCHAR
STARTCHAR SF030000
ENCODING 9488
SWIDTH 600 0
DWIDTH 7 0
BBX 4 7 0 -3
BITMAP
F0
10
10
10
10
10
10
ENDCHAR
STARTCHAR SF020000
ENCODING 9492
SWIDTH 600 0
DWIDTH 7 0
BBX 4 7 3 3
BITMAP
80
80
80
80
80
80
F0
ENDCHAR
STARTCHAR SF040000
ENCODING 9496
SWIDTH 600 0
DWIDTH 7 0
BBX 4 7 0 3
BITMAP
10
10
10
10
10
10
F0
ENDCHAR
STARTCHAR SF080000
ENCODING 9500
SWIDTH 600 0
DWIDTH 7 0
BBX 4 13 3 -3
BITMAP
80
80
80
80
80
80
F0
80
80
80
80
80
80
ENDCHAR
STARTCHAR SF090000
ENCODING 9508
SWIDTH 600 0
DWIDTH 7 0
BBX 4 13 0 -3
BITMAP
10
10
10
10
10
10
F0
10
10
10
10
10
10
ENDCHAR
STARTCHAR SF060000
ENCODING 9516
SWIDTH 600 0
DWIDTH 7 0
BBX 7 7 0 -3
BITMAP
FE
10
10
10
10
10
10
ENDCHAR
STARTCHAR SF070000
ENCODING 9524
SWIDTH 600 0
DWIDTH 7 0
BBX 7 7 0 3
BITMAP
10
10
10
10
10
10
FE
ENDCHAR
STARTCHAR SF050000
ENCODING 9532
SWIDTH 600 0
DWIDTH 7 0
BBX 7 13 0 -3
BITMAP
10
10
10
10
10
10
FE
10
10
10
10
10
10
ENDCHAR
STARTCHAR SF430000
ENCODING 9552
SWIDTH 600 0
DWIDTH 7 0
BBX 7 3 0 2
BITMAP
FE
00
FE
ENDCHAR
STARTCHAR SF240000
ENCODING 9553
SWIDTH 600 0
DWIDTH 7 0
BBX 3 13 2 -3
BITMAP
A0
A0
A0
A0
A0
A0
A0
A0
A0
A0
A0
A0
A0
ENDCHAR
STARTCHAR SF510000
ENCODING 9554
SWIDTH 600 0
DWIDTH 7 0
BBX 4 8 3 -3
BITMAP
F0
80
F0
80
80
80
80
80
ENDCHAR
STARTCHAR SF520000
ENCODING 9555
SWIDTH 600 0
DWIDTH 7 0
BBX 5 7 2 -3
BITMAP
F8
A0
A0
A0
A0
A0
A0
ENDCHAR
STARTCHAR SF390000
ENCODING 9556
SWIDTH 600 0
DWIDTH 7 0
BBX 5 8 2 -3
BITMAP
F8
80
B8
A0
A0
A0
A0
A0
ENDCHAR
STARTCHAR SF220000
ENCODING 9557
SWIDTH 600 0
DWIDTH 7 0
BBX 4 8 0 -3
BITMAP
F0
10
F0
10
10
10
10
10
ENDCHAR
STARTCHAR SF210000
ENCODING 9558
SWIDTH 600 0
DWIDTH 7 0
BBX 5 7 0 -3
BITMAP
F8
28
28
28
28
28
28
ENDCHAR
STARTCHAR SF250000
ENCODING 9559
SWIDTH 600 0
DWIDTH 7 0
BBX 5 8 0 -3
BITMAP
F8
08
E8
28
28
28
28
28
ENDCHAR
STARTCHAR SF500000
ENCODING 9560
SWIDTH 600 0
DWIDTH 7 0
BBX 4 8 3 2
BITMAP
80
80
80
80
80
F0
80
F0
ENDCHAR
STARTCHAR SF490000
ENCODING 9561
SWIDTH 600 0
DWIDTH 7 0
BBX 5 7 2 3
BITMAP
A0
A0
A0
A0
A0
A0
F8
ENDCHAR
STARTCHAR SF380000
ENCODING 9562
SWIDTH 600 0
DWIDTH 7 0
BBX 5 8 2 2
BITMAP
A0
A0
A0
A0
A0
B8
80
F8
ENDCHAR
STARTCHAR SF280000
ENCODING 9563
SWIDTH 600 0
DWIDTH 7 0
BBX 4 8 0 2
BITMAP
10
10
10
10
10
F0
10
F0
ENDCHAR
STARTCHAR SF270000
ENCODING 9564
SWIDTH 600 0
DWIDTH 7 0
BBX 5 7 0 3
BITMAP
28
28
28
28
28
28
F8
ENDCHAR
STARTCHAR SF260000
ENCODING 9565
SWIDTH 600 0
DWIDTH 7 0
BBX 5 8 0 2
BITMAP
28
28
28
28
28
E8
08
F8
ENDCHAR
STARTCHAR SF360000
ENCODING 9566
SWIDTH 600 0
DWIDTH 7 0
BBX 4 13 3 -3
BITMAP
80
80
80
80
80
F0
80
F0
80
80
80
80
80
ENDCHAR
STARTCHAR SF370000
ENCODING 9567
SWIDTH 600 0
DWIDTH 7 0
BBX 5 13 2 -3
BITMAP
A0
A0
A0
A0
A0
A0
B8
A0
A0
A0
A0
A0
A0
ENDCHAR
STARTCHAR SF420000
ENCODING 9568
SWIDTH 600 0
DWIDTH 7 0
BBX 5 13 2 -3
BITMAP
A0
A0
A0
A0
A0
B8
80
B8
A0
A0
A0
A0
A0
ENDCHAR
STARTCHAR SF190000
ENCODING 9569
SWIDTH 600 0
DWIDTH 7 0
BBX 4 13 0 -3
BITMAP
10
10
10
10
10
F0
10
F0
10
10
10
10
10
ENDCHAR
STARTCHAR SF200000
ENCODING 9570
SWIDTH 600 0
DWIDTH 7 0
BBX 5 13 0 -3
BITMAP
28
28
28
28
28
28
E8
28
28
28
28
28
28
ENDCHAR
STARTCHAR SF230000
ENCODING 9571
SWIDTH 600 0
DWIDTH 7 0
BBX 5 13 0 -3
BITMAP
28
28
28
28
28
E8
08
E8
28
28
28
28
28
ENDCHAR
STARTCHAR SF470000
ENCODING 9572
SWIDTH 600 0
DWIDTH 7 0
BBX 7 8 0 -3
BITMAP
FE
00
FE
10
10
10
10
10
ENDCHAR
STARTCHAR SF480000
ENCODING 9573
SWIDTH 600 0
DWIDTH 7 0
BBX 7 7 0 -3
BITMAP
FE
28
28
28
28
28
28
ENDCHAR
STARTCHAR SF410000
ENCODING 9574
SWIDTH 600 0
DWIDTH 7 0
BBX 7 8 0 -3
BITMAP
FE
00
EE
28
28
28
28
28
ENDCHAR
STARTCHAR SF450000
ENCODING 9575
SWIDTH 600 0
DWIDTH 7 0
BBX 7 8 0 2
BITMAP
10
10
10
10
10
FE
00
FE
ENDCHAR
STARTCHAR SF460000
ENCODING 9576
SWIDTH 600 0
DWIDTH 7 0
BBX 7 7 0 3
BITMAP
28
28
28
28
28
28
FE
ENDCHAR
STARTCHAR SF400000
ENCODING 9577
SWIDTH 600 0
DWIDTH 7 0
BBX 7 8 0 2
BITMAP
28
28
28
28
28
EE
00
FE
ENDCHAR
STARTCHAR SF540000
ENCODING 9578
SWIDTH 600 0
DWIDTH 7 0
BBX 7 13 0 -3
BITMAP
10
10
10
10
10
FE
10
FE
10
10
10
10
10
ENDCHAR
STARTCHAR SF530000
ENCODING 9579
SWIDTH 600 0
DWIDTH 7 0
BBX 7 13 0 -3
BITMAP
28
28
28
28
28
28
FE
28
28
28
28
28
28
ENDCHAR
STARTCHAR SF440000
ENCODING 9580
SWIDTH 600 0
DWIDTH 7 0
BBX 7 13 0 -3
BITMAP
28
28
28
28
28
EE
00
EE
28
28
28
28
28
ENDCHAR
STARTCHAR upblock
ENCODING 9600
SWIDTH 600 0
DWIDTH 7 0
BBX 7 6 0 4
BITMAP
FE
FE
FE
FE
FE
FE
ENDCHAR
STARTCHAR dnblock
ENCODING 9604
SWIDTH 600 0
DWIDTH 7 0
BBX 7 7 0 -3
BITMAP
FE
FE
FE
FE
FE
FE
FE
ENDCHAR
STARTCHAR block
ENCODING 9608
SWIDTH 600 0
DWIDTH 7 0
BBX 7 13 0 -3
BITMAP
FE
FE
FE
FE
FE
FE
FE
FE
FE
FE
FE
FE
FE
ENDCHAR
STARTCHAR lfblock
ENCODING 9612
SWIDTH 600 0
DWIDTH 7 0
BBX 4 13 0 -3
BITMAP
F0
F0
F0
F0
F0
F0
F0
F0
F0
F0
F0
F0
F0
ENDCHAR
STARTCHAR rtblock
ENCODING 9616
SWIDTH 600 0
DWIDTH 7 0
BBX 3 13 4 -3
BITMAP
E0
E0
E0
E0
E0
E0
E0
E0
E0
E0
E0
E0
E0
ENDCHAR
STARTCHAR ltshade
ENCODING 9617
SWIDTH 600 0
DWIDTH 7 0
BBX 7 11 0 -1
BITMAP
B4
00
4A
4A
00
B4
00
00
4A
00
B4
ENDCHAR
STARTCHAR shade
ENCODING 9618
SWIDTH 600 0
DWIDTH 7 0
BBX 7 13 0 -3
BITMAP
4A
B4
4A
4A
B4
4A
B4
B4
4A
B4
4A
B4
B4
ENDCHAR
STARTCHAR dkshade
ENCODING 9619
SWIDTH 600 0
DWIDTH 7 0
BBX 7 13 0 -3
BITMAP
FE
B4
FE
FE
B4
FE
B4
B4
FE
B4
FE
B4
B4
ENDCHAR
STARTCHAR filledbox
ENCODING 9632
SWIDTH 600 0
DWIDTH 7 0
BBX 7 7 0 0
BITMAP
FE
FE
FE
FE
FE
FE
FE
ENDCHAR
STARTCHAR H22073
ENCODING 9633
SWIDTH 600 0
DWIDTH 7 0
BBX 7 7 0 0
BITMAP
FE
82
82
82
82
82
FE
ENDCHAR
STARTCHAR H18543
ENCODING 9642
SWIDTH 600 0
DWIDTH 7 0
BBX 5 5 1 1
BITMAP
F8
F8
F8
F8
F8
ENDCHAR
STARTCHAR H18551
ENCODING 9643
SWIDTH 600 0
DWIDTH 7 0
BBX 5 5 1 1
BITMAP
F8
88
88
88
F8
ENDCHAR
STARTCHAR filledrect
ENCODING 9644
SWIDTH 600 0
DWIDTH 7 0
BBX 7 2 0 4
BITMAP
FE
FE
ENDCHAR
STARTCHAR triagup
ENCODING 9650
SWIDTH 600 0
DWIDTH 7 0
BBX 7 7 0 0
BITMAP
10
10
38
38
7C
7C
FE
ENDCHAR
STARTCHAR triagrt
ENCODING 9658
SWIDTH 600 0
DWIDTH 7 0
BBX 7 7 0 0
BITMAP
C0
F0
FC
FE
F8
E0
80
ENDCHAR
STARTCHAR triagdn
ENCODING 9660
SWIDTH 600 0
DWIDTH 7 0
BBX 7 7 0 0
BITMAP
FE
7C
3C
38
38
10
10
ENDCHAR
STARTCHAR triaglf
ENCODING 9668
SWIDTH 600 0
DWIDTH 7 0
BBX 7 7 0 0
BITMAP
06
1E
3E
FE
3E
0E
02
ENDCHAR
STARTCHAR lozenge
ENCODING 9674
SWIDTH 600 0
DWIDTH 7 0
BBX 7 7 0 0
BITMAP
18
28
44
C6
6C
38
10
ENDCHAR
STARTCHAR circle
ENCODING 9675
SWIDTH 600 0
DWIDTH 7 0
BBX 7 7 0 0
BITMAP
38
44
82
82
82
44
38
ENDCHAR
STARTCHAR H18533
ENCODING 9679
SWIDTH 600 0
DWIDTH 7 0
BBX 7 7 0 0
BITMAP
38
7C
7E
FE
FE
7C
38
ENDCHAR
STARTCHAR invbullet
ENCODING 9688
SWIDTH 600 0
DWIDTH 7 0
BBX 7 13 0 -3
BITMAP
FE
FE
FE
C6
82
82
82
C2
EE
FE
FE
FE
FE
ENDCHAR
STARTCHAR invcircle
ENCODING 9689
SWIDTH 600 0
DWIDTH 7 0
BBX 7 13 0 -3
BITMAP
FE
FE
FE
C6
BA
FE
FE
FE
BA
C6
FE
FE
FE
ENDCHAR
STARTCHAR openbullet
ENCODING 9702
SWIDTH 600 0
DWIDTH 7 0
BBX 5 6 1 1
BITMAP
70
88
88
88
48
30
ENDCHAR
STARTCHAR smileface
ENCODING 9786
SWIDTH 600 0
DWIDTH 7 0
BBX 7 7 0 0
BITMAP
38
44
AA
82
A6
7C
38
ENDCHAR
STARTCHAR invsmileface
ENCODING 9787
SWIDTH 600 0
DWIDTH 7 0
BBX 7 7 0 0
BITMAP
38
7C
D6
FE
FE
44
38
ENDCHAR
STARTCHAR sun
ENCODING 9788
SWIDTH 600 0
DWIDTH 7 0
BBX 7 7 0 1
BITMAP
10
5C
2C
C6
44
7C
54
ENDCHAR
STARTCHAR female
ENCODING 9792
SWIDTH 600 0
DWIDTH 7 0
BBX 6 9 1 0
BITMAP
78
88
84
88
88
70
20
70
20
ENDCHAR
STARTCHAR male
ENCODING 9794
SWIDTH 600 0
DWIDTH 7 0
BBX 7 10 0 0
BITMAP
04
1E
06
0A
78
84
84
84
48
78
ENDCHAR
STARTCHAR spade
ENCODING 9824
SWIDTH 602 0
DWIDTH 7 0
BBX 7 9 0 0
BITMAP
10
38
3C
7C
FE
FE
74
10
10
ENDCHAR
STARTCHAR club
ENCODING 9827
SWIDTH 600 0
DWIDTH 7 0
BBX 7 9 0 0
BITMAP
38
38
38
7E
FE
FE
10
10
10
ENDCHAR
STARTCHAR heart
ENCODING 9829
SWIDTH 600 0
DWIDTH 7 0
BBX 7 9 0 0
BITMAP
6E
FE
FE
FE
7E
7C
3C
38
10
ENDCHAR
STARTCHAR diamond
ENCODING 9830
SWIDTH 600 0
DWIDTH 7 0
BBX 7 9 0 0
BITMAP
10
18
38
7C
FE
7C
38
10
10
ENDCHAR
STARTCHAR musicalnote
ENCODING 9834
SWIDTH 600 0
DWIDTH 7 0
BBX 7 9 0 0
BITMAP
10
18
1C
16
12
14
70
F0
F0
ENDCHAR
STARTCHAR musicalnotedbl
ENCODING 9835
SWIDTH 600 0
DWIDTH 7 0
BBX 7 12 0 -2
BITMAP
02
06
1E
3A
22
22
22
2E
2E
6C
E0
E0
ENDCHAR
STARTCHAR gopher
ENCODING 63488
SWIDTH 600 0
DWIDTH 7 0
BBX 7 8 0 -1
BITMAP
BA
54
52
7C
BA
7C
7C
24
ENDCHAR
STARTCHAR fi
ENCODING 64257
SWIDTH 600 0
DWIDTH 7 0
BBX 7 10 0 0
BITMAP
34
74
60
FC
64
64
64
64
64
EE
ENDCHAR
STARTCHAR fl
ENCODING 64258
SWIDTH 600 0
DWIDTH 7 0
BBX 7 10 0 0
BITMAP
3C
64
64
F4
64
64
64
64
66
E6
ENDCHAR
STARTCHAR .notdef
ENCODING -1
SWIDTH 600 0
DWIDTH 7 0
BBX 5 9 1 0
BITMAP
F8
88
88
88
88
88
88
88
F8
ENDCHAR
STARTCHAR zerodot
ENCODING -1
SWIDTH 600 0
DWIDTH 7 0
BBX 7 10 0 0
BITMAP
10
7C
64
46
46
D6
46
44
6C
38
ENDCHAR
STARTCHAR zero_empty
ENCODING -1
SWIDTH 600 0
DWIDTH 7 0
BBX 7 10 0 0
BITMAP
10
7C
64
46
46
C6
46
64
6C
38
ENDCHAR
ENDFONT
